<svg width="354" height="239" viewBox="0 0 354 239" fill="none" xmlns="http://www.w3.org/2000/svg">
<path d="M20 103.8L35.2 0.899981H265.5C265.5 0.899981 327.7 0.399994 349.3 43.1H156.2C156.2 43.1 127.6 39.8 117.5 76.4C108.2 110.2 75.4 102.9 85.7 103.8H20V103.8Z" fill="#E73D14"/>
<path d="M12.6 147.4L6.70001 188.6H237.5C237.5 188.6 349.7 188.1 353.1 63.6L245.3 66.5C245.3 66.5 219.8 62.1 203.2 110.6C184.9 163.9 96.9 147.3 91.5 147.3H12.6V147.4Z" fill="black"/>
<path d="M15.7 212.1H17.8C23.7 212.1 25.7 214 24.5 221C23.4 227.4 20.1 230.1 14.9 230.1H12.5L15.7 212.1ZM14.6 238.1C25.5 238.1 33.4 233.2 35.7 220.5C37.7 209.4 31.8 204.3 20.9 204.3H6L0 238.2H14.6V238.1Z" fill="black"/>
<path d="M57.4 238.1H46.3L48.5 225.8L39.7 204.2H52.1L55.9 215.7L63.7 204.2H76L59.6 225.6L57.4 238.1Z" fill="black"/>
<path d="M98.6 222.7L99.5 215L101.4 204.2H112.1L106.1 238.1H95.7L86.8 219.6L85.9 227.3L84 238.1H73.4L79.4 204.2H89.8L98.6 222.7Z" fill="black"/>
<path d="M133.1 226.5H126.1L131.7 214.4L133.1 226.5ZM120.7 238.1L122.8 233.6H133.9L134.4 238.1H145.5L139.3 204.2H128L109.9 238.1H120.7Z" fill="black"/>
<path d="M166.4 223.9C169.9 223.9 172.5 224.1 172 227.1C171.5 229.6 169.4 230.2 166.6 230.2H161.8L162.9 223.9H166.4V223.9ZM168.9 212.1C171.3 212.1 173.4 212.2 172.9 214.8C172.6 216.8 170.8 217.8 168.6 217.8H164L165 212.1H168.9ZM165.8 238.1C174.6 238.1 180.9 235.5 182.2 227.9C182.8 224.2 181.4 221.1 177.9 220.1C180.3 218.7 183 216.2 183.6 212.7C184.8 206 179 204.2 171.4 204.2H155.2L149.2 238.1H165.8Z" fill="black"/>
<path d="M201.1 212.1H206.3C208.9 212.1 210.6 213.2 210.1 215.6C209.7 218 207.7 218.8 204.3 218.8H199.9L201.1 212.1ZM202 226.3C207.2 226.3 207.7 227.8 206.9 232.2C206.4 235.2 206.3 237.4 206.4 238.1H217.7L217.9 237.1C216.6 237.1 217 235.6 217.8 231.2C219 224.4 217 223.5 213.6 222.2C217.7 221.1 220.1 217.8 220.7 213.9C221.9 207.3 218.7 204.3 207.4 204.3H191.4L185.4 238.2H196.5L198.6 226.4H202V226.3Z" fill="black"/>
<path d="M242.9 226.5H235.9L241.5 214.4L242.9 226.5ZM230.5 238.1L232.6 233.6H243.7L244.2 238.1H255.3L249.1 204.2H237.8L219.7 238.1H230.5Z" fill="black"/>
<path d="M274.5 212.1H276.6C282.5 212.1 284.5 214 283.3 221C282.2 227.4 278.9 230.1 273.7 230.1H271.3L274.5 212.1ZM273.4 238.1C284.3 238.1 292.2 233.2 294.5 220.5C296.5 209.4 290.6 204.3 279.7 204.3H264.8L258.8 238.2H273.4V238.1Z" fill="black"/>
<path d="M295.9 238.1L301.9 204.2H329.5L328.1 212.1H311.6L310.7 216.9H324.7L323.3 224.9H309.3L308.4 230.2H325.6L324.2 238.1H295.9Z" fill="black"/>
<path d="M319.9 179.3C319.9 171.6 326.1 166 333.5 166C340.8 166 347 171.6 347 179.3C347 187 340.8 192.7 333.5 192.7C326.1 192.7 319.9 187 319.9 179.3ZM333.4 190.5C339.4 190.5 344.2 185.8 344.2 179.3C344.2 173 339.4 168.2 333.4 168.2C327.3 168.2 322.5 173 322.5 179.3C322.6 185.7 327.3 190.5 333.4 190.5ZM330.6 187H328.3V171.6H334.2C337.8 171.6 339.6 172.9 339.6 176C339.6 178.8 337.9 180 335.6 180.2L340 187H337.4L333.4 180.3H330.7V187H330.6ZM333.4 178.4C335.4 178.4 337.1 178.3 337.1 175.9C337.1 174 335.4 173.6 333.7 173.6H330.5V178.4H333.4Z" fill="black"/>
</svg>
