<?xml version="1.0" encoding="UTF-8" standalone="no"?>
<svg width="3159.1" xmlns="http://www.w3.org/2000/svg" height="578.14">
 <defs>
  <style>.cls-1{fill:#009a86;}.cls-2{fill:#c40923;}.cls-3{fill:#fefefe;}.cls-4{fill:#009a87;}.cls-5{fill:#fdfefe;}.cls-6{fill:#fefdfd;}.cls-7{fill:#fcfcfc;}.cls-8{fill:#cde7e0;}.cls-9{fill:#8fccc1;}.cls-10{fill:#e08f76;}.cls-11{fill:#37b3a4;}.cls-12{fill:#f1cec0;}.cls-13{fill:#d25b46;}.cls-14{fill:#f0ccbe;}.cls-15{fill:#d35c46;}.cls-16{fill:#f1cdbf;}.cls-17{fill:#e9a4ae;}.cls-18{fill:#c50a24;}.cls-19{fill:#fdfefd;}</style>
 </defs>
 <title>LOG_WEMARO_300dpi</title>
 <g>
  <title>background</title>
  <rect id="canvas_background" height="580.14" width="3161.1" y="-1" x="-1" fill="none"/>
 </g>
 <g>
  <title>Layer 1</title>
  <path id="svg_1" class="cls-1" d="m2865.9 440.16c13.51 7 27.86 11.48 42.64 15 10.47 2.48 20.91 2.19 31.45 1.68 2-0.72 4.25 0.26 6.25-0.69 4.29 0 8.57 0 12.74-1.23 2.06-0.86 4.34 0.16 6.39-0.75l3.61-0.28c1.64-0.8 3.54 0.23 5.15-0.77l2.85-0.23c1.63-0.8 3.54 0.23 5.15-0.77l2.85-0.23c1.37-0.86 3 0 4.4-0.72a164.6 164.6 0 0 0 64.58 -19.26c0.87-1.33 2.69-0.75 3.68-1.85 7.18-4 13.78-8.91 20.5-13.62 0.17-1.58 1.9-1.43 2.63-2.38 18.57-16.53 35.19-34.38 40.21-60 0.68-1.24 0.22-2.74 0.9-4 2.31-13.06 6.46-25.62 10.17-38.31 3.07-10.51 3.42-21.12 2.35-32.08a151.07 151.07 0 0 0 -6.56 -31.7c-4.11-12.75-8.48-25.6-18-35.76-1.72-1.83-4.41-4.56-3.35-6.57s4.77-1.65 7.44-1.54c10.82 0.46 17.94 6.81 23.51 15.24 7.68 11.61 15.14 23.36 19.59 36.71a2.77 2.77 0 0 0 2 2v1c-1.14 6-0.22 12.15-0.52 18.22q0 11.29 0 22.59c-0.28 3.72 0.62 7.49-0.55 11.16-1.15 2.25 0.12 4.77-0.78 7-5.19 23.8-14.13 46.49-20.66 69.9-1.78 6.38-3.31 12.84-6.66 18.66-0.16 1.66-1.55 2.42-2.54 3.48-8.72 11-19.41 20-29.47 29.63-0.62 1.92-2.65 2.18-3.93 3.34-20.72 16.41-44.71 25.74-69.77 33.21-15.73 4.69-31.9 6.9-47.77 10.65a27.61 27.61 0 0 1 -4.4 0.34c-1.68 0.77-3.6-0.15-5.27 0.74l-3.73 0.28c-1.65 1-3.61-0.26-5.26 0.72l-5.76 0.34c-2 0.64-4.25-0.26-6.27 0.65l-7.71 0.27q-19.48 0.79-39 0l-5.72-0.27c-2-0.77-4.23 0.06-6.26-0.68l-4.95-0.25c-1.56-1.07-3.45 0-5.06-0.77-18.11-1.06-35.61-5.62-52.86-10.57-10.23-2.93-20.56-6.47-30.06-11.69-1.39-0.57-3.09-0.41-4.14-1.78a195.85 195.85 0 0 1 -36.68 -22.28c-1.51-0.33-2.29-1.61-3.3-2.58-4.9-2.55-9-6.32-12.89-10-14.17-13.38-27.57-27.39-37-44.82-9.15-16.84-15.84-34.29-17.29-53.53-0.62-1.74 0.13-3.66-0.67-5.38l-0.14-20.47c1.14-1.9 0-4.08 0.75-6 1.09-17.31 6.36-33.62 13.15-49.31s16.68-29.69 27.1-43.26c3.58-4.64 7.32-9.15 11-13.72a10.07 10.07 0 0 1 2.71 -2.82 139.39 139.39 0 0 1 17.15 -19.41c5.43-5.23 10.85-10.46 16-15.91 7.43-7.81 16-14.25 24.73-20.41 1.28-0.9 2.81-1.94 4.27-2 9-0.52 13.74-6.73 18.48-13.08 1.55-2.08 3.08-4.16 4.63-6.24 0.89-1.06 1.58-2.35 3.05-2.77l4.95-4.23c0.79-1.23 0.94-2.79 2-3.9 10.07-14.85 25.41-22 41.44-27.88 5-1.87 10.41-2.89 15.62-4.3 1.26-0.68 2.76-0.15 4-0.79l3-0.21c2.28-0.88 4.8 0.4 7-0.79l13.56 0.08c2.37 1.06 5-0.27 7.34 0.71l3.82 0.26c1.62 1 3.53 0 5.18 0.77 9.24 2.06 18.55 3.88 27.72 6.22 25.22 6.43 49.5 15.18 70.41 31.24 16.81 12.91 31.27 27.84 38.14 48.62 0.77 2.33 1.31 4.74 2 7.11 0.73 2.07-0.2 4.32 0.69 6.37q0 2.65 0 5.3c-0.86 1.67-0.06 3.55-0.66 5.25-2.23 10.73-6 20.46-16.12 26.47-3.52 2.09-7.33 2.82-11.15 3.74a26.3 26.3 0 0 1 -8.95 0c-10.38-1.55-18.46-7.25-25.82-14.25a2.94 2.94 0 0 1 -2.23 -1.72c-6.7-6.33-13.23-12.86-20.17-18.9-4.33-3.77-8.72-7.58-13.89-10.27-1.05-0.48-2.25-0.73-2.91-1.84-10.18-5.45-21.36-7-32.6-8.28a54 54 0 0 0 -15.43 0.09 36.25 36.25 0 0 0 -12.69 1.69c-6.26 1.75-12.61 3.13-19 4.39-4.74 0.93-6 4.53-3 8.38s6.73 7.6 11.6 9.6a6 6 0 0 1 4.09 3c0.25 1 1.08 0.94 1.84 1a3 3 0 0 1 2.22 1.73c8.15 6.73 14.41 15.8 24.87 19.69 6.39 2.38 12.34 5.9 19 7.52a26 26 0 0 1 4 1.85c7.56 4 15.12 8.05 21.61 13.74 5.38 4.71 10.14 9.91 12.58 16.86 0.37 1.06 0.56 1.82-0.21 2.66a8.49 8.49 0 0 1 -4.94 0.07c-23.5-3.64-46.49-9-68.42-18.56-11.7-5.1-23.45-10.11-35-15.63-1.13-0.79-2.52-1.09-3.64-1.91l-2.89-1.44a3.42 3.42 0 0 1 -2.98 -1.48c-11.45-5.36-22.89-10.77-34.37-16.07-8.18-3.77-13-2.92-19.75 3.45-7.78 7.37-16.74 13.4-24.14 21.19-4.45 4.69-8.11 10.58-13.4 13.94-8.23 5.26-10.34 13.39-13.59 21.39-5.1 12.4-11.05 24.46-14.2 37.59-0.88 3.66-1.94 7.32-1.6 11.17-1.17 1.93 0.29 4.2-0.77 6.14q0 4 0 8.06c0.69 1.65-0.25 3.53 0.72 5.14 0.39 11.1 5.71 20.34 11.15 29.53 20.38 34.43 49.28 59.93 83.63 79.7 6.23 3.59 12.37 7.38 19.28 9.6a2 2 0 0 1 1.98 1.07z"/>
  <path id="svg_2" class="cls-1" d="m154.21 373.04l-0.24 3.95c-1.07 1.56 0 3.44-0.77 5.05-4.5 31.92-9.89 63.68-18.25 94.85-3.87 14.42-8.3 28.67-17.09 41.06-4.72 6.64-10.76 11.49-18.89 13.31a34.55 34.55 0 0 1 -9.93 0c-3-0.84-6.38-0.12-8.91-2.53-1.29 0-2-1.17-3.11-1.51-5.33-4.49-7.64-10.41-8.18-17.18-1-1.7 0.18-3.69-0.73-5.4l-0.28-6.61c-0.69-2.39-0.07-4.91-0.69-7.3-1.23-9.86-4.34-19.28-7.12-28.75a275.29 275.29 0 0 1 -7.82 -33.24 368.82 368.82 0 0 0 -9.2 -40.41c-3-10.7-5.69-21.5-9-32.12-2.56-8.27-5.71-16.37-8.81-24.46-5-13-9.91-26-14.53-39.21-3.82-10.88-6.15-22.1-9.48-33.07-0.73-2.41 1.25-5.26-1.19-7.4v-5a38.68 38.68 0 0 0 0 -14v-32c1.37-5.22 2.35-10.58 4.17-15.63 5.05-14 18.37-20.82 31.37-16.23 8.77 3.1 13.42 10.14 16.3 18.39 3.17 9.07 4.24 18.44 2.19 28a17 17 0 0 1 -3.29 7.71c-9.08 10.7-10 23.34-8.14 36.34 5 35.91 15.13 70.72 23.83 105.82 7.5 30.26 17.38 59.91 23.06 90.63a87.7 87.7 0 0 1 1.69 16.34c0 5.64 2.54 7.07 7.72 4.74 6.71-3 11.15-8.18 14.14-14.79 6.85-15.16 9.47-31.37 11.94-47.64 1.34-8.83 0.66-18 4.27-26.45a5.17 5.17 0 0 0 0.14 -3.41c-3.07-8.84-1.07-17.4 1.16-26a225.34 225.34 0 0 0 7.46 -48.17 10.43 10.43 0 0 1 0.95 -4.83c4.68-7.71 4.3-16.58 6.12-24.95 1.16-5.32 3.58-10.36 4.76-15.67 1.4-6.31 2.16-12.77 3.06-19.19 0.77-5.52 2.28-10.63 6.09-15a15.84 15.84 0 0 0 3.7 -9.66c0.55-12.92 5.38-24.92 7.57-37.45a586.36 586.36 0 0 0 8.72 -80.27c0.43-12.36 3.78-13.66 14.16-17.46 4.84-1.77 8.07 0.39 10 5.61 3 8.41 2.94 17.33 3.9 26.06 2.78 25.29 3.67 51 9.57 75.67 11.92 50 22.87 100.28 42.59 148.07 9.25 22.4 15.27 45.94 22.85 68.93 0.76 2.29 1 5.73 3.48 6.06s3.8-2.86 5.19-4.89c4.07-5.93 7.41-12.21 8.79-19.38a11.88 11.88 0 0 1 2.4 -5.94c5.24-5.91 7.73-13 9-20.66 1.34-7.86 5.91-14.7 7.33-22.68a41 41 0 0 0 -2.31 -23c-1-2.46-2-4.93-2.79-7.46-2.4-7.44-1.71-14.4 3.35-20.67a43.83 43.83 0 0 0 6.37 -11.23c3-7.49 3.43-15.12-1.14-22-7.3-11-6.13-21.72 0.35-32.25a46 46 0 0 0 6.35 -16.05 142.77 142.77 0 0 1 7.8 -26.18 28.51 28.51 0 0 0 1.19 -18c-1.57-6.11 0.31-12.21 1.86-18.17a71.63 71.63 0 0 1 2.25 -7.12c1.64-4.37 2-7.76-4-9-4-0.86-5.07-4.75-5.25-8.27-0.55-11.19-0.43-22.46 4.69-32.72 6.39-12.81 7.37-26.32 7.18-40.27-0.18-13.14-1-26.32 0.77-39.43a28.37 28.37 0 0 1 0.54 -3.43c1.69-6.48 3.24-7.08 9.53-4.57 13.12 5.23 21.83 15.09 28.8 26.87a1.78 1.78 0 0 1 1.21 1.9l15.18 42a8.45 8.45 0 0 1 1.7 5.28l5.32 24.73a13.34 13.34 0 0 1 0 5.93c-0.75 2.49-1.51 5-2.26 7.47-0.45 1.5-1.27 3.1-2.66 3.36-1.83 0.35-2.83-1.63-3.68-2.88a7.55 7.55 0 0 1 -1.29 -4.54c0.95-10.84-3.9-20-8.92-28.8-3.87-6.81-4.82-14.7-8.94-21.34-0.65-1-1.14-2-2.36-2.28s-2.5-0.41-3.15-1.72c-1.49-0.49-3.23-0.65-4.41-1.55-2.24-1.71-4.6-3.75-7.31-2.29s-2.39 4.73-2.28 7.52a291.62 291.62 0 0 0 -0.06 36.36l0.27 4.75c0.5 1.29 0.22 2.72 0.73 4a10.93 10.93 0 0 0 1.25 6c0.41 5.65 0.84 11.29 0 16.94-2.61 18.89-8.72 37-12.53 55.6-0.89 4.35-1.9 8.67-1.75 13.15-1 1.65 0.25 3.61-0.74 5.26l-0.21 4.9a21.72 21.72 0 0 0 -0.07 9.52 18.37 18.37 0 0 0 0.68 6.25c4.6 14.93 1 29.37-3 43.71-0.6 2.15-0.47 4.23-0.7 6.33-0.88 1.67 0 3.57-0.71 5.27v5.06c0.73 1.73-0.1 3.66 0.72 5.38 0 5.9 3.13 11.37 1.33 17.66-1.64 5.74-2.74 11.61-5.17 17.15-3.46 7.87-4.12 16.45-5.58 24.78-1.55 8.87-3.67 17.7-3.53 26.81-1.13 2.64 0.15 5.51-0.77 8.17-0.78 6.51 0.24 12.83 2 19.06a41.25 41.25 0 0 1 0 10.94c-2.13 15-8.72 28.77-11.59 43.53-1.75 9-3.67 18-3.65 27.29-1 2 0.08 4.19-0.76 6.18l-0.28 5.66a49.19 49.19 0 0 0 0.09 14.37 26 26 0 0 1 -17.09 25.16c-9.6 3.52-23.24-6.19-24.06-16.19a8.55 8.55 0 0 1 0 -4.95c0.58-7.91 4.76-15 5.2-22.94a24.86 24.86 0 0 0 0.06 -10.39c-1.78-12.43-5.38-24.47-9.34-36.26-9.5-28.31-16.58-57.27-24.6-86-7.72-27.63-16.13-55.09-25.43-82.25-4.31-12.6-10.28-24.46-15.72-36.57-2.43-5.41-4.4-11-6.43-16.63s-6.6-8.84-11.56-11.49c-3-1.6-5.3-1.13-6 2.82-3.69 19.88-8.62 39.49-12.61 59.31q-4.49 22.32-9.17 44.65a39.63 39.63 0 0 0 -0.32 6.46c-0.62 1.68 0.19 3.56-0.71 5.21l-0.33 4.71c-0.47 1.73-0.07 3.57-0.68 5.28l-0.3 4.63c-0.81 1.71 0 3.63-0.69 5.36l-0.29 4.75c-0.88 1.66 0 3.55-0.69 5.24l-0.27 4.88c-0.86 1.73 0.2 3.62-0.65 5.24z"/>
  <path id="svg_9" class="cls-4" d="m3143 82.07c-7.26 6.24-15.48 10.92-24.93 12.33-12.93 1.93-25.16-0.2-36.2-8-8.91-6.31-14.34-14.77-18-24.87-2.19-6.09-1.39-12.25-1.87-18.38 1.18-1.54-0.26-3.49 0.82-5 3.91-18.63 15-30.68 33.19-36.26 1.47-1.1 3.38-1 5-1.75h18c17.25 2.59 29.31 12.15 35.84 28.08 5.37 13.11 5 26.57-0.4 39.77a4.8 4.8 0 0 1 -2.54 2.94l-5.91 8.16a6.52 6.52 0 0 1 -3 2.98z"/>
  <path id="svg_12" class="cls-5" d="m3151.9 70.86c2.19-6.14 4.77-12.1 5.45-18.75 2.5-24.66-13.11-43.9-33-50.11-1.78-0.56-3.92-0.28-5.31-1.94 12.33 0 24.67 0.08 37-0.07 2.5 0 3.08 0.57 3.07 3.07-0.11 22.67-0.07 45.33-0.07 68-2.39-0.62-4.86 2.66-7.14-0.2z"/>
  <path id="svg_14" class="cls-7" d="m3159 700.07l-3.78-18c1.72 1.34 2.52-0.67 3.78-1v19z"/>
  <path id="svg_15" class="cls-8" d="m3158.2 300.11v-23c0.22-0.51 0.49-0.56 0.81-0.08v23c-0.23 0.47-0.51 0.5-0.81 0.08z"/>
  <path id="svg_16" class="cls-9" d="m3159 277.07l-0.4 0.09h-0.41c0.16-6-1.27-12.14 0.81-18.08v17.99z"/>
  <path id="svg_17" class="cls-10" d="m3159 719.07a34.11 34.11 0 0 1 0 -18v18z"/>
  <path id="svg_18" class="cls-11" d="m0 233.07a20.83 20.83 0 0 1 0 14v-14z"/>
  <path id="svg_19" class="cls-7" d="m3158.2 300.11a5.81 5.81 0 0 0 0.85 0v11h-1.06l0.21-11z"/>
  <path id="svg_20" class="cls-12" d="m3050 762.21a4.12 4.12 0 0 0 0 0.86h-10a2.68 2.68 0 0 0 0 -0.87 8.05 8.05 0 0 1 10 0.01z"/>
  <path id="svg_21" class="cls-13" d="m2425 763.07a11.21 11.21 0 0 1 10 0h-10z"/>
  <path id="svg_22" class="cls-14" d="m2959 763.07q0-0.42 0-0.84c3-2.31 6.06-2.3 9.09 0a4.36 4.36 0 0 0 0 0.86l-9.09-0.02z"/>
  <path id="svg_23" class="cls-15" d="m2666 763.07a9 9 0 0 1 9 0h-9z"/>
  <path id="svg_24" class="cls-16" d="m3125.1 762.25a6.66 6.66 0 0 1 -0.06 0.82h-8a4.14 4.14 0 0 0 0 -0.85l8.06 0.03z"/>
  <path id="svg_25" class="cls-3" d="m2945 763.07c0.55-0.79 1.06-2.21 1.65-2.25 1.13-0.07 1.27 1.24 1.35 2.25h-3z"/>
  <path id="svg_26" class="cls-7" d="m3101 0.070004c-1.3 1.61-3.29 1.23-5 1.75l1-1.75h4z"/>
  <path id="svg_27" class="cls-1" d="m1351.8 144.16l0.35-11.65a75.57 75.57 0 0 0 0 -17.67 92.93 92.93 0 0 1 -3.27 -18.76c-0.73-1.66-0.37-3.47-0.71-5.19l-0.29-7.81a18.92 18.92 0 0 1 -0.06 -6.92c0.78-4.4 0.18-8.82 1.26-13.33 2.1-8.7 6.7-14.7 14.93-18a2.79 2.79 0 0 1 2.42 -1.56c4.06-3 9-3.86 13.66-5.31a31.85 31.85 0 0 1 9.94 0 70.38 70.38 0 0 1 12 5.17c1.08 0.57 2.62 0.52 2.91 2.16 18.82 18.2 27.49 42.13 37 65.56 2.47 6.06 4.77 12.19 7.14 18.29 1.3 1.42 1.3 3.34 1.88 5 5.37 16.44 10.66 32.91 16.13 49.32 11.31 33.64 22.42 67.36 33.96 100.91 10.7 30.92 22.56 61.41 34.6 91.79 1.29 0.57 1.26 1.76 1.36 2.89a268 268 0 0 0 23.15 49.74c6.63 11.17 14.55 21.21 25 29.09 11.38 8.55 24.21 9.33 37.66 7.73 4.15-0.5 9.19-2.9 11.38 3.46a17 17 0 0 1 0 6.94c-1.55 12.83-4.17 15.91-16.21 18.27a16.21 16.21 0 0 1 -6.92 0 75.7 75.7 0 0 1 -27.02 -8.19c-1-0.52-2.25-0.64-3-1.67-13.06-6.22-21.68-17.07-29.55-28.61s-13.36-24.16-19.31-36.65c-0.88-1.84-0.88-4.09-1.29-6.15-1-1.06 0.23-2.65-0.86-3.69-1.46-8.81-4.3-16.92-10-24.12-2.56-3.24-2.41-8-3.25-12.17a5.75 5.75 0 0 1 -1.74 -2.74c-6.08-6.81-7.62-15.28-7.73-23.87-0.11-5.26-4.27-8.42-5.27-13.07-0.57-2.53-2-4.87-3.05-7.29-1.13-1 0.16-2.65-0.93-3.67-1.61-2.94-2.91-6-5.48-8.42-2.45-2.26-4.11-5.15-3.54-8.7 1-5.71-1.34-10.55-3.78-15.4-1.38-2.75-2.46-5.37-2.13-8.78s-2.09-6.31-3.68-9.27c-1.93-3.56-4.41-6.82-5.57-10.78-1-4.69 0.4-9.52-0.76-14.2-2.86-9.68-7.84-18.37-11.79-27.53-3.63-8.4-6.92-17-10.19-25.56-6.18-16.16-11.62-32.69-19.7-48-3.66-6.94-8.41-13.4-12.26-20.36-5.82-10.5-11.34-21.19-18.61-30.84-3.95-5.24-8.12-10.18-13.49-14-4.37-3.11-8.38-1.67-11.26 4.2-3.2 6.52-4.46 13.62-5.69 20.68-0.76 4.37-1.53 8.81-1.22 13.3-0.54 2.07 0 4.25-0.69 6.3l-0.27 6.6c-1.05 3.41 0.19 7-0.73 10.4l-0.27 14.64c-0.94 12.88-0.21 25.78-0.37 38.66 0 3.27-0.61 6.6 0.43 9.83l0.24 21.93c0.93 5.69-0.47 11.47 0.74 17.15l0.25 13.85c0.9 4.43-0.29 9 0.71 13.39l0.29 11.6c1 4-0.44 8.24 0.72 12.28l0.31 10.74c0.8 3.41-0.35 6.94 0.67 10.33l0.29 10.66c0.93 4-0.4 8.22 0.73 12.24l0.31 12.77c0.87 5-0.47 10.07 0.75 15l0.21 19c0.5 9.64 0.47 19.29 0 28.93a44.85 44.85 0 0 1 -3.19 16.13c-0.86 1.22-0.85 2.93-2.15 3.91-4.12 6.23-8.36 12.29-14.73 16.6-2 1.34-4.26 1.47-6.17 2.66a16.05 16.05 0 0 1 -6.93 0c-13-2.47-17.06-12.86-21-23.43-1.54-4.14-1.38-8.56-2.21-12.81-0.86-2.37 0.26-4.94-0.74-7.3l-0.29-13.71c-0.88-3.75 0.35-7.64-0.71-11.38-0.11-5.57-3.54-10.23-4.29-15.62a14.33 14.33 0 0 1 0 -6.94c0.41-7.7-2.72-14.49-5.72-21.24a29.07 29.07 0 0 1 -2.24 -6.81c-1-3 0.38-6.18-0.82-9.14-2-8.44-4.63-17-2.66-25.63 2.43-10.68-2.18-19.32-6.74-28.12a20.33 20.33 0 0 1 -2.56 -9.71c0.07-10.58-5.12-19.26-10.87-27.5a58.65 58.65 0 0 1 -8.33 -18.24c-3.58-12.79-13.23-20.27-24.74-25.49-3.6-1.63-6 1.15-7 4.44a66.33 66.33 0 0 0 -3.1 22.37c-0.89 1.91-0.19 4-0.74 6l-0.33 5.83c-1 2 0.07 4.19-0.74 6.18l-0.27 4.76c-0.9 1.66 0 3.56-0.71 5.24l-0.23 4c-1.08 1.56 0 3.45-0.79 5.05a657.23 657.23 0 0 1 -12.83 70.34c-3 12.52-6.16 25-8.44 37.66-2.38 13.2-4.56 26.44-6.91 39.65-2.72 15.27-4.83 30.71-8.63 45.71a98.43 98.43 0 0 1 -7.52 20.37c-6.65 13.08-22.5 14.16-32.73 6.91l-2.3-1.61a20.32 20.32 0 0 1 -2.82 -2.74c-3.76-4.54-8.33-8.64-8.16-15.28-0.93-1.29 0.11-2.93-0.75-4.23-2.35-13.75-1.56-28.19-7.23-41.14-3-6.79-3.32-13.68-4.75-20.56-0.35-1.68-0.53-3.62-1.5-4.91-4.72-6.37-3.62-13.23-2.44-20.14 0.34-3.05 0.82-6.1-0.16-9.13-2.52-7.53-6.28-14.73-6.21-23-0.6-1.73-0.23-3.58-0.66-5.33l-0.37-6.68c-0.64-1.7 0.18-3.6-0.68-5.27 0.17-4.88-2.87-9-3.3-13.72a68.29 68.29 0 0 1 0 -13.92c0.55-7 1-13.87-3.62-20-1.13-1.49-0.92-4-1.32-6a34.3 34.3 0 0 1 0 -9.94l0.31-7.66a10.85 10.85 0 0 0 0 -6.54q0-9.86 0-19.72a18.5 18.5 0 0 0 0 -9.18c-0.08-10.95-2.09-21.36-7.74-31-5.55-9.46-8.68-19.68-8.22-30.8 0.65-1.65 0.05-3.49 0.8-5.12 3.7-14.13 12.77-23.16 26.41-27.85 1.55-0.53 3.16-0.87 4.75-1.3a40.6 40.6 0 0 1 10.94 -0.09c18.31 4.11 29.4 15.76 34.44 33.45 1.77 6.19-1 12-2.92 17.7-3.75 11.33-9.26 22-11.93 33.78a48.26 48.26 0 0 0 -1.7 14.09 217.11 217.11 0 0 0 0 32.23l0.21 12c0.92 4.75-0.37 9.62 0.71 14.37l0.31 18.64c0.88 4.77-0.39 9.64 0.7 14.41l0.28 8.59c0.82 2-0.29 4.21 0.75 6.17a19.55 19.55 0 0 0 1.33 8.73c1.89 5.24 4.09 6 8.73 3.1a48.94 48.94 0 0 0 15.2 -15.59 4.51 4.51 0 0 0 0.91 -3.21c0.48-1.36 0.07-2.86 0.7-4.19 2.23-8.29 7.21-15.55 8.84-24.1s3.37-17 4.48-25.67c1.42-11.12 3.34-22.19 5.49-33.19 0.46-2.34-0.51-5 1.38-7.07 0.68-1.24 0.26-2.72 0.87-4l3.11-21.99c1.15-1.9-0.06-4.11 0.79-6l0.29-6.6a97.31 97.31 0 0 0 0 -19.82 48.84 48.84 0 0 0 -4.28 -17.61c-1.24-0.74-1.48-2-1.7-3.28-3.15-5.94-6.87-11.52-7.12-18.74-0.21-6 2.91-10 6-14.33 0.85-1.1 1.07-2.52 1.86-3.64 1.32-2.77 2.31-5.77 4-8.26 8-11.52 20.25-14.39 34-8.19 12.7 5.7 20.64 15.59 25.88 27.82 12.28 28.52 19.34 58.75 27.28 88.65 4.89 18.52 9.5 37.11 14.27 55.66 0.12 0.45 0.57 0.81 0.86 1.22a4.7 4.7 0 0 1 0.81 3c1.41 9.28 4.39 18.18 6.65 27.26 1 4.13 2.27 8.21 3.62 12.25 3 8.92 4.81 9.47 12.82 4.18 0.95-0.72 0.86-2.44 2.45-2.53a62.26 62.26 0 0 0 5.63 -11c0.57-1.73 0.57-3.65 1.76-5.17 1.52-7.9 3.65-15.7 4.25-23.77 0.92-1.64 0-3.55 0.73-5.22l0.24-4.86c1-1.95 0-4.13 0.69-6.12 1.71-8.19-1.65-16-1.62-24.11v-15.5c1.07-3.75-0.2-7.65 0.73-11.41l0.16-7.32c1.38-2.79-0.27-5.87 0.81-8.69l0.14-7.87c1.22-3.27-0.14-6.75 0.8-10l0.26-7.75c0.94-3.09-0.06-6.25 0.69-9.25z"/>
  <path id="svg_28" class="cls-1" d="m2518.2 107.05c-1.84 12.06-7.14 22.69-13.58 32.85-5.54 8.73-12 16.74-18.47 24.82-3.23 4-6.45 8.24-8.15 13.28-0.77 1-0.94 2.35-2.13 3a27.81 27.81 0 0 1 -9.54 5.86c-8.59 3.44-13.39 11.08-18.27 18.2-4.77 7-10.6 11.51-19 12.51-10.57 1.26-18.17 8.58-27.15 13.1-2 1-3.92 2.41-5.87 3.63-1.16 1.85-3.41 1.72-5 2.77-16.09 8.63-33.23 14.81-50.46 20.52-13.76 4.56-28 7.68-42.14 11a40 40 0 0 0 -24 16.06c-3.67 5-3.82 11.83 2.58 16.91 10.33 8.2 20.84 16.16 31.79 23.51 16.35 11 32.85 21.7 49.31 32.5a6.58 6.58 0 0 0 1.9 0.59 11.24 11.24 0 0 1 3 2c2 1.69 4.07 3.33 6.68 4a2.79 2.79 0 0 1 2.41 1.56c11.06 7.95 23.11 14.31 34.84 21.12 18.08 10.5 36.4 20.62 55.24 29.74 17.81 8.62 35.9 16.51 55.35 20.83a45.36 45.36 0 0 0 5.34 0.66c1.82 1.37 4.4-0.83 6.07 1.28 2.85 1.34 5.89 0.44 8.82 0.75a46.27 46.27 0 0 0 13.71 0c4.32-0.08 8.71 0.06 11.58-4.11a8.45 8.45 0 0 0 0.05 -6.15c-1.43-8.9-4.67-17.29-7.2-25.88a9.39 9.39 0 0 1 -0.1 -4.93c0.86-3.86 3.23-3.61 5.92-2.07 12.14 7 21.66 16.25 26.33 29.81 0.37 1.08 0.76 2.16 1.14 3.24a25.75 25.75 0 0 1 0 8.95c-3.33 14.45-14.1 20.17-27.18 23.17-1.61 0.72-3.43 0.14-5 0.83l-5 0.23a76.85 76.85 0 0 1 -14.94 0l-5-0.19c-1.89-1.19-4.12 0.12-6-0.85-15.94-2.28-31.09-7.31-46-13.21a2.19 2.19 0 0 1 -2 -0.86c-26.63-9.88-51.6-23.25-76.65-36.43-11.47-6-22.72-12.48-34.07-18.74-1.34-0.19-2.63-0.45-3.34-1.75-20.2-6.95-37.88-18.4-55.15-30.66-7.21-5.12-15-9.46-22.32-14.4-7.1-4.77-13.74-10.16-22.26-12.54-2.71-0.76-5.43-0.51-8.11-1.39-3.89-1.27-6.61 0.71-8.24 4.4-4.41 10-8.47 20.11-11.91 30.48-0.74 1.27-1 2.78-1.88 4-2.42 5.47-7.27 9.7-8.15 16-1.16 1.89 0.06 4.11-0.8 6-4.17 13.45-7.75 27.06-11.25 40.7-2.47 9.65-6.69 18.75-9.67 28.19-3.73 11.81-4.88 24.33-8.1 36.37a64.58 64.58 0 0 1 -10.29 21.47 3.68 3.68 0 0 1 -3 3.22c-6.57 5.2-13.18 10.25-21.44 12.66-14.18 4.13-26.11 0-34.56-12.28-5.89-8.57-11.05-17.33-9.75-28.46a28.55 28.55 0 0 1 2 -6.82 2.34 2.34 0 0 1 0.75 -2.06c5.27-10.26 9.81-20.81 11.81-32.25 0.67-3.81 1-7.69 1.42-11.53 1-1.61 0-3.51 0.75-5.16l1.24-11.88c1-1.26 0-2.86 0.73-4.16 0.36-11.12 2.82-22 4.39-32.93 1.84-12.8 4.13-25.59 8-38-0.27-2 0.83-3.47 1.73-5 2-7.12 5.31-13.73 8.24-20.49a317.11 317.11 0 0 1 16.32 -32.11c9.06-15.75 18.93-30.95 32.2-43.55 5-4.75 11.07-8.26 16.6-12.37 8-6 7.71-13.71 6.57-21.83-0.36-2.56-0.35-5.21-1-7.73-1-3-0.22-6 0-8.94 0.55-6.73 4.18-11 10.39-13.38 8.88-3.44 18.22-5.77 26.27-11.29a34 34 0 0 0 5.85 -5.18c7.66-8.38 17.47-14.21 25.69-21.8 6.27-5.79 13-11.17 18.77-17.53 12.93-14.13 29-24.34 44.84-34.75 7.33-4.81 14.23-10.29 22.15-14.17 1.42-0.7 2.82-1.42 4.24-2.13 0.72-1.19 2-1.41 3.18-1.72a157 157 0 0 1 43.63 -15.09c1.75-0.32 3.48-0.77 5.22-1.16 1.68-0.77 3.6 0.16 5.25-0.74 17.9-1.16 34.95 1.65 50.59 11 1 0.75 2.53 0.75 3 2.17 4.19 4.2 8.81 7.87 12.65 12.53a35.43 35.43 0 0 1 7.64 16.27 10.34 10.34 0 0 1 -0.05 5.91z"/>
  <path id="svg_29" class="cls-1" d="m636.92 489.04l-6.95 0.2a257 257 0 0 1 -27.94 0c-17.64-0.41-34.31-4.72-48.82-14.78a67.54 67.54 0 0 1 -24.21 -29.67 88.45 88.45 0 0 1 -6.09 -21.74c-0.95-2 0.28-4.2-0.82-6.13l-0.23-5.88c-0.84-2.73 0.29-5.62-0.71-8.33l-0.33-10.68a190.36 190.36 0 0 1 0 -22.93l1.28-12.73a7.63 7.63 0 0 0 0 -5.47c-0.28-3.89-3.39-6.33-5.25-9.28-7-11.16-4.08-21.41 1.81-31.6a16.33 16.33 0 0 1 8 -6.7c3-1.28 5.25-3.06 6.46-6.09 1-1.59-0.06-3.51 0.81-5.13 1-6.38 4-12.69 0.43-19.22-0.35-0.63-0.36-1.5-1-2.14-5-5.29-2.84-10.23 0.6-15.29s6.41-10.12 9.6-15.19a4.28 4.28 0 0 1 3.6 -2.17c4.93-0.39 7.83-3.59 10-7.69a5.21 5.21 0 0 0 -0.17 -4.07c-3.12-3.5-0.84-7.45-0.92-11.2 1.08-1.55 0-3.42 0.75-5a65 65 0 0 1 7.3 -28.73 33.86 33.86 0 0 1 2.08 -3.24 17.89 17.89 0 0 1 1.8 -4.07c-0.22-1.68 1.7-2.85 1.11-4.62 1.09-4.74-0.19-9.6 0.7-14.35 1.57-6.84 6.11-10.64 12.65-12.39 4.85-1.3 9.72-2.56 14.58-3.84 1.64-0.75 3.53 0.25 5.13-0.75h2.53c1.67 0.87 3.58 0 5.27 0.7 9.44 2.61 18.35 6.09 24.79 14.08a4.29 4.29 0 0 0 4.08 1.18 25.49 25.49 0 0 0 10.43 0l16.76-2.27c1.3-0.9 2.93 0.12 4.24-0.73 6-0.09 11.16-2.9 15.34-6.42 7.24-6.12 15.71-8.94 24.47-11.1 15.41-3.79 30.81-8.11 46.48-10.21 14-1.88 27.64-4.35 40.78-9.35 6.9-2.62 13.93-5.16 19.65-10.15 0.48-1.56 2.15-1.11 3.12-1.83l17.92-4.17c1.27-0.6 2.73-0.25 4-0.78 11.43-1.19 22.27-4.85 33.22-8 22.11-6.32 44.11-13.06 66.77-17.28 1.94-0.9 4.11 0 6.06-0.8h18.85c1.22 1 2.81 0 4.08 0.74 6.73 1.83 13.46 3.51 20 6.1 14.83 5.89 20.53 20.4 6.88 34a13.09 13.09 0 0 0 -0.88 1.09c-0.6 0.71-0.91 1.75-2.07 1.83-7.84 4.25-11.43-1.8-15-6.67a38.15 38.15 0 0 0 -7.09 -7.13 3.46 3.46 0 0 1 -1.88 -1.79c-13.97-10.8-29.34-9.02-44.97-5.02-1.16 1.08-2.84-0.2-4 0.88-3.1 1-6.4 1.6-9.27 3.06a35.56 35.56 0 0 1 -15.63 3.73c-12.31 0.21-23.3 5.11-34.62 8.92-4.18 1.41-8.32 2.92-12.47 4.38-0.85 1.06-2.19 0.26-3.17 0.84-2.3 1-4.82 0.66-7.16 1.21-5.26 1.24-10.6 2.32-15 5.9-6 4.91-13.61 5.53-20.78 6.75-4.4 0.75-8.72 1.33-12.82 3.14-9.53 4.19-20 4.94-29.86 7.88a687 687 0 0 0 -80.5 29.91c-7.41 3.25-15.16 5-23.09 6.29-11.09 1.83-18.17 8.07-24.2 18-12.5 20.64-21.08 42.95-30.68 64.84-1.69 3.85-4.57 7.26-4.88 11.7a9.82 9.82 0 0 0 0 5.81c0.2 1.93 1.55 2.88 3.12 3.64 1.19 0.92 3.19 0 4 1.79 4.22 2.07 8.66 1.12 13 1 1.65-0.65 3.52 0.27 5.13-0.7 10.41-1 20.6-3.3 30.85-5.23 1.61-0.66 3.42-0.13 5-0.81a51.7 51.7 0 0 0 25.79 -4.79c14.26-6.38 29.73-8.91 44.92-12.19 1.43-0.31 2.83-0.76 4.24-1.15 1.17-1.08 2.75-0.3 4-0.88 16.26-2.67 32.31-6.41 48.43-9.8 17-3.59 34.05-7.36 50.85-12 20.59-5.7 41.38-10.62 62.25-15.06 23.9-5.08 48-9.13 72-13.65 0.81-0.15 1.6-0.42 2.4-0.64 1.57-0.91 3.5 0.27 5-0.85a19.38 19.38 0 0 0 8 -1.16c1.67-0.83 3.6 0.15 5.26-0.77l2.74-0.26c1.63-0.81 3.54 0.23 5.14-0.78l3.85-0.25c2-1 4.22 0.4 6.17-0.75 8.61-0.18 17.12 0.14 24.72 5 5.81 3.67 6.51 7.23 2.53 12.58a42.59 42.59 0 0 1 -3.83 5.09c-2.81 2.78-5.8 4.76-9.79 1.52-11.15-9-24.14-10.64-37.86-9-1.94 0.81-4.14-0.37-6 0.77-9.6 0.42-19 2.36-28.42 4-11.43 2-22.82 4.29-34.11 7-17.79 4.23-35.61 8.24-53.16 13.57-11 3.34-22.32 6.87-34.28 6.68-3.52-0.05-7 2.69-10.64 3.48-8.91 1.93-17.93 3.34-26.86 5.2-11 2.3-22.12 4.43-33 7.37-31.22 8.45-62.08 18.14-92.68 28.62-5 1.7-9.86 3.53-14.79 5.31-1.21 1.32-2.94 1.25-4.48 1.67-7.48 2.36-15.12 4.78-22.36 8.19-1.75 0.36-3.25 1.51-5.07 1.63q-14.22 5.48-28.43 11c-2.43 0.94-4.18 2.5-4.47 5.27-0.51 1.72-0.77 3.52-1.92 5-3.92 9.28-5.13 19.21-7.07 29-0.64 3.23-1.37 6.44-1.1 9.77-0.84 1.31 0.18 3-0.74 4.25l-0.22 2.85c-1 1.6 0 3.51-0.77 5.15l-0.19 3c-1.27 1.88 0.29 4.14-0.81 6l-0.27 4.62c-1.06 3.74 0.18 7.62-0.71 11.37-3.12 14.65 6.76 21.14 17.21 27.07 9.37 5.32 19.7 7.43 30.37 8 1.64 0.95 3.55 0 5.21 0.75l5.74 0.26a27.25 27.25 0 0 0 10.55 0c7.54 0 14.32-3.86 21.77-4.31a17.62 17.62 0 0 1 6.93 0.06h5.06c1.65-0.6 3.46-0.1 5.11-0.73l1.88-0.2c1.63-0.86 3.56 0.2 5.17-0.8 3 0.35 5.92-0.62 8.83-1.22 1.67-0.8 3.59 0.17 5.24-0.76 11.77-0.7 23.14-3.78 34.64-6q19.29-3.79 38.48-8.07c10.61-2.37 21.12-5.16 31.72-7.58 4.23-1 7.06-3 8-7.42 0.59-2.78 1.64-5.41 4.82-6.29a3.61 3.61 0 0 1 2.15 -1.67c4.57-2.89 9.71-4.14 14.92-5.22 2.36-0.86 4.93 0.27 7.27-0.74h3.3c2.39 1 5-0.11 7.37 0.73 8.07 2.6 13.91 8.68 20.68 13.32a2.44 2.44 0 0 1 2.29 2q5 5.16 10 10.31c4.08 4.19 4.71 7.78 1.76 12.77-4 6.7-9 11.92-17.46 12.89-4.8 0.55-9.5 2-14.25 3-1.21 1-2.87-0.18-4.08 0.83-12 1.95-23.88 4.19-35.72 6.87-2.66 0.6-5.6 0-8.21 1.29-1.18 1.06-2.85-0.19-4 0.86-8.41 1.69-16.84 3.27-25.22 5.11-11.23 2.47-22.38 5.27-33.62 7.71-15.94 3.46-31.85 7.17-47.92 9.91-9.38 1.6-18.85 2.76-28.24 4.43-1.64 0.82-3.55-0.21-5.16 0.78l-2.84 0.23c-1.63 0.8-3.54-0.23-5.14 0.77l-3.86 0.26c-1.64 0.74-3.53-0.26-5.13 0.74l-4.86 0.24c-2.27 1.07-4.83-0.49-7.07 0.79z"/>
  <path id="svg_30" class="cls-1" d="m1788.9 475.03l-10.92 6.13a5.6 5.6 0 0 1 -3 0.85c-8.3 2.09-16.6 3.64-25.27 2.77-8.15-0.81-15.19-3.86-20.83-9.67-2.6-2.68-5.54-5-7.73-8.2a32 32 0 0 1 -5.38 -12.91 32.38 32.38 0 0 1 0 -9.93 59.63 59.63 0 0 1 10.21 -28.49c0.43-0.64 1.51-1.08 0.92-2a2.06 2.06 0 0 0 -2.67 -0.53 70.59 70.59 0 0 0 -7.94 3.77c-7.83 4.69-15.56 9.56-23.32 14.36-0.66 1.24-1.93 1.46-3.1 1.84a2.26 2.26 0 0 0 -2.2 0.86c-5.69 8.5-15.37 9.73-23.83 13.29-6.63 2.79-12.82 6.56-20.47 6-2.7-0.21-5.15-0.6-7.38-2.13a2.71 2.71 0 0 1 -2.07 -1.66c-7.87-8.77-8.75-18.9 3.52-24.37 15.82-7.06 31.85-13.62 47.26-21.65 13.25-6.9 25.9-15 39.86-20.51 6.88-2.74 11.1-8.22 12.35-15.55 0.3-1.77 1-3.38 1.24-5.14 0.4-1.32 0.1-2.76 0.7-4l1.21-8.75c1-1.64-0.25-3.61 0.74-5.25 1.18-11.46 5.56-22 8.74-32.86q4.71-16 8.55-32.25c3-12.95 5.94-26 8-39.1 1.91-12.42 7.07-24 8.23-36.66 0.48-5.3 1.95-10.68 2.76-16.06 1-1.61 0-3.5 0.74-5.14-0.24-10.3 3.63-19.61 6.71-29.17 3.8-11.8 6.76-23.89 12.5-35 2.64-5.08 4.55-10.69 9.7-14.15 1.09-0.74 1.56-2.42 2.31-3.66 1.18-1.89-0.14-4.14 0.87-6.06 3.7-10.8 11-19.41 17.32-28.64 5.91-8.69 12-17.23 18.11-25.8 2.42-3.42 5.55-6.29 9.75-6.84 16.64-2.15 30.43 1.49 29.66 22.38-0.48 12.91 3.73 24.65 5.6 36.95 0.91 6 1.89 12 2.84 18 0.81 2-0.23 4.26 0.74 6.26 1 14.28 4.89 28 8.11 41.88 3.92 16.89 8.09 33.71 12.18 50.56a14.79 14.79 0 0 0 1 2.27c0.85 1.25-0.25 2.88 0.8 4.08 0.34 9.3 3.79 17.93 6.22 26.71 5.03 18.4 10.37 36.77 16.74 54.81 0.23 0.65 0.3 1.26 1.1 1.37 1.72 1 3.47 0.61 5.22 0.12a18.18 18.18 0 0 0 11.4 -5.54c6.87-7.19 15.47-10.59 24.57-13.13 7-2 12.63-7 19.78-8.63a22.36 22.36 0 0 1 9 0.11c5.08 3 9.28 6.87 11.56 12.48 3.76 9.25-0.78 16.37-6.45 22.78a43.11 43.11 0 0 1 -18.18 11.93c-6.22 2.22-11.15 6.78-16.61 10.33a19.88 19.88 0 0 1 -9.55 3.42c-4.46 0.33-8.57 1.9-12.54 3.62-2.58 1.12-5.19 2.24-2.51 6.77 3.29 5.57 3.11 12.6 4.18 19a18.72 18.72 0 0 0 1.2 4.75c0.83 1.23 0.31 2.72 0.77 4 0 7.68 4.1 14.1 6.66 21 3.61 9.67 7.9 19.08 10.07 29.24a5.55 5.55 0 0 0 1.25 3.17c10.19 10.07 12.64 23.79 17.12 36.54 1.62 4.61 2.79 9.38 4.16 14.08 0.89 2-0.31 4.18 0.8 6.11a75.18 75.18 0 0 1 -1.66 17.15c-1.36 5.73-3.37 11.23-9.76 12.33-7 1.2-11.71-3.6-14-9.14s-7.54-9.94-7.72-16.51c-0.72-1.61 0.31-3.48-0.75-5-1.8-8.59-4.44-17.1-5.21-25.78-1.07-12-6.34-23-6.72-35.12-0.09-2.72-2.75-5.36-4.23-8a12.31 12.31 0 0 1 -1.74 -4.43l-0.31-1.58c-0.76-1.67 0.17-3.59-0.74-5.24-0.31-1.1-0.36-2.4-1-3.28-8.77-12.44-9.21-27.51-13.19-41.46-1.37-1.39-1.12-3.4-1.91-5-1.89-4.82-5.34-4.84-9.44-3.15-18.5 7.61-37.52 13.81-56.37 20.46-21.1 7.34-41.97 15.58-63.67 20.72-8.06 1.91-11.74 5.43-14.52 12.18-2.18 5.3-0.9 9.66 2.44 13.69 2.62 3.17 5.54 6.09 8.33 9.13 1.34 0.7 1.58 2.08 2 3.33 3.77 11.38 4 22.64-0.82 33.85-2.32 5.38-5.93 9.72-10 13.75a3.22 3.22 0 0 1 -2.09 1.94z"/>
  <path id="svg_35" class="cls-3" d="m2449 660.07l-11-3.05c5.39-5.12 12.13-3.51 17.22-1.12 3.28 1.54 5.46 6.53 9.36 8.83 0.52 0.31 0.45 1.88 0.38 2.84-0.18 2.55 0.84 3.58 3.44 3.55 3.34 0 4.62 2 4.59 5.18v14.27c-0.09 5.76-3.08 8.2-8.38 6-3.34-1.37-5.95-1.35-8.79 0.53-0.41 0.27-1 0.66-1.36 0.56-6.16-1.57-5.37 2.76-5.46 6.36l-26.33-6.69c-3.6-0.92-6.9-2.37-9.42-5.23a11.73 11.73 0 0 1 1.54 -16.83c7.1-5.48 22.71-5.23 29.57 0.61 3.4 2.89 5.6 6.51 5.58 11.18-0.27 2.14 1.3 2.61 2.77 2.56 5.25-0.2 10.51 0.28 15.75-0.34 0.26 0 0.41-0.44 0.48-0.79h-0.05c-0.89-1.73 0.75-3.81-0.75-5.46a31.86 31.86 0 0 0 -15.2 -20.87c0.21-3.46-2.94-0.83-3.94-2.09z"/>
  <path id="svg_36" class="cls-3" d="m3130 659.16h-13c-1.35 0.28-2.92-0.47-4 0.88-6.43 1.73-12.08 4.7-16.31 10-0.77 1-2.56 1.37-2.24 3.18-3.57 4.68-3.68 10.52-5.31 15.86a45.58 45.58 0 0 1 -3 -15.79c-0.19-5.54 5.24-10.26 10.9-10.2 2.95 0 5.1 0 5.21-4 0.07-2.55 2.31-4 4.94-4 11.72-0.05 23.44 0 35.16 0 2.34 0 3.75 1.62 3.35 3.39-0.52 2.31 1.26 3.68 1.28 5.61 0.43 1.18-0.15 1.86-1.15 2.34a51.41 51.41 0 0 0 -11 -6c-1.24-1.88-3.34-0.43-4.83-1.27z"/>
  <path id="svg_39" class="cls-7" d="m1367 205.16c-1.32-4-0.59-8.2-0.53-12.29 0.16-12.07-0.75-24.15 0.47-36.2q-0.01 24.26 0.06 48.49z"/>
  <path id="svg_40" class="cls-7" d="m2899 490.24h39c-2.94 1.71-6.15 0.67-9.22 0.8-9.26 0.39-18.54-0.5-27.8 0.47-0.98 0.1-1.51-0.56-1.98-1.27z"/>
  <path id="svg_41" class="cls-7" d="m2856.2 677.43c-1.49 13.11-1.49 13 11.13 13.15 4.09 0 8.24-0.74 12.3 0.5-7.25 0-14.51 0-21.76 0.07-1.52 0-3 0.56-2.89-1.88 0.12-4 0.07-7.91 0.11-11.86 0-0.1 0.21-0.29 0.29-0.27a5.67 5.67 0 0 1 0.82 0.29z"/>
  <path id="svg_42" class="cls-7" d="m359.91 99.35a167.38 167.38 0 0 1 0.06 -36.36q-0.03 18.17-0.06 36.36z"/>
  <path id="svg_43" class="cls-7" d="m1154 244.16a130.33 130.33 0 0 1 0 -32.2q0 16.08 0 32.2z"/>
  <path id="svg_44" class="cls-7" d="m1373.2 415.04v-28.94a105.68 105.68 0 0 1 0 28.94z"/>
  <path id="svg_45" class="cls-7" d="m602 489.26h27.94a94.89 94.89 0 0 1 -27.94 0z"/>
  <path id="svg_46" class="cls-7" d="m2581.7 719.21l-5.79-9.09c3.41 0.04 7.04 5.75 5.79 9.09z"/>
  <path id="svg_47" class="cls-7" d="m520.81 369.1q0 11.46 0 22.93a66.73 66.73 0 0 1 0 -22.93z"/>
  <path id="svg_48" class="cls-7" d="m2486.1 759.5a50.09 50.09 0 0 0 18.87 0 2 2 0 0 1 -2.24 1.52c-5.53-0.75-11.36 1.89-16.63-1.52z"/>
  <path id="svg_49" class="cls-7" d="m362.19 131.04v-16.94c0.81 5.64 2.53 11.29 0 16.94z"/>
  <path id="svg_50" class="cls-7" d="m1209.1 158.68a56.4 56.4 0 0 1 0 19.82q0-9.91 0-19.82z"/>
  <path id="svg_51" class="cls-7" d="m2880 760.03h18a31.73 31.73 0 0 1 -18 0z"/>
  <path id="svg_52" class="cls-17" d="m2696.2 690.9l17.86 0.19q0.43 0.29 0.33 0.63c-0.07 0.24-0.14 0.36-0.23 0.36-4.72 0-9.44 0.11-14.16 0.05-1.33 0.03-3.03 0.67-3.8-1.23z"/>
  <path id="svg_53" class="cls-7" d="m1352.1 114.8c1.42 5.89 0.7 11.77 0 17.66q0.01-8.82 0-17.66z"/>
  <path id="svg_54" class="cls-7" d="m1367.9 244.25c-1-5.68-0.83-11.42-0.74-17.15 1.72 5.66 0.45 11.44 0.74 17.15z"/>
  <path id="svg_55" class="cls-7" d="m316 513.08c-1.48-4.78-1-9.57-0.09-14.37-0.53 4.79 1.24 9.57 0.09 14.37z"/>
  <path id="svg_56" class="cls-7" d="m2622.8 704.09q0 5.48 0 11c-2.65-3.69-1.68-7.34 0-11z"/>
  <path id="svg_57" class="cls-17" d="m2713 721.48c-5.34 1-10.72 0.31-16.08 0.39 5.33-1.71 10.72-0.98 16.08-0.39z"/>
  <path id="svg_58" class="cls-7" d="m2922 155.06a34.63 34.63 0 0 1 15.43 -0.09l-15.43 0.09z"/>
  <path id="svg_59" class="cls-7" d="m2537 463.24h14.94a28.23 28.23 0 0 1 -14.94 0z"/>
  <path id="svg_60" class="cls-7" d="m1373 367.16c-1.15-5-0.78-10-0.75-15 1.66 4.89 0.36 10 0.75 15z"/>
  <path id="svg_61" class="cls-7" d="m1113.8 288.16q0 7 0 13.92c-1.18-4.68-1.76-9.32 0-13.92z"/>
  <path id="svg_62" class="cls-7" d="m1368.9 271.49c-1-4.42-0.78-8.91-0.71-13.39 1.82 4.38 0.82 8.91 0.71 13.39z"/>
  <path id="svg_63" class="cls-7" d="m1473.1 246.84c1.87 4.65-0.14 9.5 0.76 14.2-1.77-4.65-0.48-9.47-0.76-14.2z"/>
  <path id="svg_64" class="cls-7" d="m1154.9 270.47c-1-4.75-0.78-9.56-0.71-14.37 1.71 4.72 0.53 9.58 0.71 14.37z"/>
  <path id="svg_65" class="cls-7" d="m569.81 155.1c-0.56 4.77 1 9.63-0.7 14.35 0.2-4.78-1.01-9.63 0.7-14.35z"/>
  <path id="svg_66" class="cls-7" d="m1155.9 303.51c-1-4.77-0.81-9.59-0.7-14.41 1.67 4.74 0.51 9.61 0.7 14.41z"/>
  <path id="svg_67" class="cls-7" d="m1369.9 295.37c-1-4-0.78-8.17-0.72-12.28 2.25 3.98 0.15 8.21 0.72 12.28z"/>
  <path id="svg_68" class="cls-7" d="m2678 656.92h-13a21.1 21.1 0 0 1 13 0z"/>
  <path id="svg_69" class="cls-7" d="m2551.4 440.16a29.22 29.22 0 0 1 -13.71 0h13.71z"/>
  <path id="svg_70" class="cls-7" d="m2903 182.16c-1.44-0.91-3.12-1.5-4.09-3 0.43-0.79 0.69-2 1.34-2.28 1-0.38 1.15 0.94 1.45 1.6a37.86 37.86 0 0 1 1.3 3.68z"/>
  <path id="svg_71" class="cls-7" d="m1371.9 339.34c-1-4-0.79-8.14-0.73-12.24 1.68 4 0.51 8.16 0.73 12.24z"/>
  <path id="svg_72" class="cls-7" d="m2436 656.9l-12-0.07a18.84 18.84 0 0 1 12 0.07z"/>
  <path id="svg_73" class="cls-7" d="m573.19 408.04c0-3.8-0.47-7.64 0.71-11.37-0.18 3.79 0.95 7.67-0.71 11.37z"/>
  <path id="svg_74" class="cls-7" d="m332.17 416.04v-10.94a15.65 15.65 0 0 1 0 10.94z"/>
  <path id="svg_75" class="cls-7" d="m1715.8 444.1v9.93c-1.7-3.32-1.43-6.62 0-9.93z"/>
  <path id="svg_76" class="cls-7" d="m2714.1 692.08l-0.11-1v-4c5.18 1.54 2.22 3.28 0.11 5z"/>
  <path id="svg_77" class="cls-7" d="m1315.1 385.66c1.42 3.72 0.59 7.58 0.71 11.38-1.66-3.71-0.52-7.58-0.71-11.38z"/>
  <path id="svg_78" class="cls-7" d="m1348.8 195.1a45.71 45.71 0 0 1 -0.73 11.4c0.19-3.8-0.97-7.69 0.73-11.4z"/>
  <path id="svg_79" class="cls-7" d="m2228.8 198.11q0 4.47 0 8.94c-2.92-2.97-0.52-5.96 0-8.94z"/>
  <path id="svg_80" class="cls-7" d="m1108.8 252.1q0 5 0 9.94c-1.88-3.3-0.92-6.62 0-9.94z"/>
  <path id="svg_81" class="cls-7" d="m1136 112.85l-10.94 0.09a15.56 15.56 0 0 1 10.94 -0.09z"/>
  <path id="svg_82" class="cls-7" d="m1351.8 144.16c0.15 3.1 0.3 6.21-0.66 9.23-0.35-3.16-0.86-6.29 0.66-9.23z"/>
  <path id="svg_83" class="cls-7" d="m1390 37.89h-9.94a12.65 12.65 0 0 1 9.94 0z"/>
  <path id="svg_84" class="cls-7" d="m280.09 483.77a16 16 0 0 1 -0.09 10.39l0.09-10.39z"/>
  <path id="svg_85" class="cls-7" d="m2010 270.99l-9-0.11c3-2.33 6-0.98 9 0.11z"/>
  <path id="svg_86" class="cls-7" d="m1349.8 179.09c0.06 2.93 0.33 5.87-0.81 8.69 0.86-2.84-1.76-6 0.81-8.69z"/>
  <path id="svg_87" class="cls-7" d="m89 531.27h9.93a13 13 0 0 1 -9.93 0z"/>
  <path id="svg_88" class="cls-7" d="m1370.9 316.44a35 35 0 0 1 -0.67 -10.33c1.63 3.35 0.49 6.89 0.67 10.33z"/>
  <path id="svg_89" class="cls-7" d="m2391 237.08l5-2.77c0.18 4.19-2.86 2.63-5 2.77z"/>
  <path id="svg_90" class="cls-7" d="m649.26 154.16a14.89 14.89 0 0 1 -10.43 0h10.43z"/>
  <path id="svg_91" class="cls-7" d="m2790 464.23c1.68-0.11 2.91 0.83 4.14 1.78-4.8 1.24-4.87 1.21-4.14-1.78z"/>
  <path id="svg_92" class="cls-7" d="m1350.8 161.1c0 3.37 0.36 6.77-0.8 10 0.3-3.3-0.88-6.76 0.8-10z"/>
  <path id="svg_93" class="cls-7" d="m3093.9 443.04a9.32 9.32 0 0 1 3.93 -3.34c2.44 5.54-2.97 1.82-3.93 3.34z"/>
  <path id="svg_94" class="cls-7" d="m642.27 444.16a21.49 21.49 0 0 1 -10.55 0h10.55z"/>
  <path id="svg_95" class="cls-7" d="m2563 689.16l-1.9-3.06c1.16-0.35 1.79-2 3.4-1.5 0.5 1.91-1.88 2.76-1.5 4.56z"/>
  <path id="svg_96" class="cls-7" d="m1367.2 142.04c0-3.48-0.35-7 0.73-10.39-0.23 3.51 1.01 7.03-0.73 10.39z"/>
  <path id="svg_97" class="cls-7" d="m1125 356a11.73 11.73 0 0 1 0.16 9.13l-0.16-9.13z"/>
  <path id="svg_98" class="cls-7" d="m3035 210.23h9a10.6 10.6 0 0 1 -9 0z"/>
  <path id="svg_99" class="cls-7" d="m2149.9 345.09a10.27 10.27 0 0 1 -1.73 5c-2.06-2.55-0.57-3.93 1.73-5z"/>
  <path id="svg_100" class="cls-7" d="m1302.1 325.9c1 3 0.62 6.09 0.82 9.14-1.77-2.88-0.55-6.09-0.82-9.14z"/>
  <path id="svg_101" class="cls-7" d="m3057.7 430.06c-1 1.09-2 2.07-3.68 1.85-1.28-5.61 2.94-0.25 3.68-1.85z"/>
  <path id="svg_102" class="cls-7" d="m2548.9 666.28a9.54 9.54 0 0 1 -2.73 -4.21c3.58-0.33 3.45 1.75 2.73 4.21z"/>
  <path id="svg_103" class="cls-7" d="m2589.2 439.04q0-4.47 0-8.95a10.51 10.51 0 0 1 0 8.95z"/>
  <path id="svg_104" class="cls-7" d="m2571.9 703.38l-2.1-3.2c1-0.48 2.21-1.06 3.12 0 1.31 1.45-1.07 1.98-1.02 3.2z"/>
  <path id="svg_105" class="cls-7" d="m2736.7 190.06c-0.68 1.16-1.22 2.44-2.71 2.82-1.15-2.92-0.63-4.23 2.71-2.82z"/>
  <path id="svg_106" class="cls-7" d="m346.89 219.47a17.1 17.1 0 0 1 0.07 -9.52l-0.07 9.52z"/>
  <path id="svg_107" class="cls-7" d="m2647.6 662.06a9.28 9.28 0 0 1 -4.64 2.85c0.45-2.75 1.94-3.75 4.64-2.85z"/>
  <path id="svg_108" class="cls-7" d="m3143 82.07l3-3c1.32 3.27 0.46 4.41-3 3z"/>
  <path id="svg_109" class="cls-7" d="m1109 209a15.16 15.16 0 0 1 0 9.16q0-4.57 0-9.16z"/>
  <path id="svg_110" class="cls-7" d="m3154 678.16l-2.7-5.11c3.18 0.52 3.54 2.51 2.7 5.11z"/>
  <path id="svg_111" class="cls-17" d="m2666.8 671.85a11.75 11.75 0 0 1 9.3 0.06l-9.3-0.06z"/>
  <path id="svg_112" class="cls-7" d="m401.86 79.37a11.4 11.4 0 0 1 -1.7 -5.28c2.14 1.25 3.39 2.79 1.7 5.28z"/>
  <path id="svg_113" class="cls-7" d="m2182.8 523l3-3.22c1.15 3.11 0.28 4.28-3 3.22z"/>
  <path id="svg_114" class="cls-7" d="m1348.1 90.85a9.22 9.22 0 0 1 0.71 5.19c-1.18-1.6-3.22-3.08-0.71-5.19z"/>
  <path id="svg_115" class="cls-7" d="m2518.2 107.05v-6c2.04 2.03 2.05 4.02 0 6z"/>
  <path id="svg_116" class="cls-7" d="m1611 494.27h6.92a5.62 5.62 0 0 1 -6.92 0z"/>
  <path id="svg_117" class="cls-7" d="m67.14 490.74c1 2.36 0.8 4.84 0.69 7.3a9.15 9.15 0 0 1 -0.69 -7.3z"/>
  <path id="svg_118" class="cls-7" d="m1336.4 302.25a3.84 3.84 0 0 1 -2.44 2.54c0.22-1.1-1.43-2.18-0.26-3.16 0.9-0.76 1.78 0.45 2.7 0.62z"/>
  <path id="svg_119" class="cls-7" d="m330.17 386.04c-0.07-2.75-0.4-5.53 0.77-8.17-0.25 2.73 0.89 5.58-0.77 8.17z"/>
  <path id="svg_120" class="cls-7" d="m1340 454.28h7c-2.35 0.88-4.66 2.25-7 0z"/>
  <path id="svg_121" class="cls-7" d="m3145.8 666.41l1.15-2.34c2.25 1 1.82 2.54 0.68 4.14l-1.83-1.8z"/>
  <path id="svg_122" class="cls-7" d="m636.92 489.04c2.26-1.11 4.68-0.81 7.06-0.79-2.09 2.61-4.76 0.02-7.06 0.79z"/>
  <path id="svg_123" class="cls-7" d="m2924 68.88a18.71 18.71 0 0 1 -7.34 -0.71c2.34 0.65 5.1-1.87 7.34 0.71z"/>
  <path id="svg_124" class="cls-7" d="m1310.8 363.09q0 3.47 0 6.94c-0.94-2.31-2.33-4.63 0-6.94z"/>
  <path id="svg_125" class="cls-7" d="m521.11 402.71c1 2.72 0.77 5.53 0.71 8.33-1.64-2.66-0.55-5.55-0.71-8.33z"/>
  <path id="svg_126" class="cls-7" d="m948.08 71.11c-1.91 1.07-4 0.9-6.06 0.8 1.73-2.44 3.98-0.94 6.06-0.8z"/>
  <path id="svg_127" class="cls-7" d="m3080.8 414.06c-0.28 1.45-1.51 1.86-2.63 2.38-0.17-0.92-1.4-1.8-0.56-2.69 0.99-1.05 2.07 0.52 3.19 0.31z"/>
  <path id="svg_128" class="cls-7" d="m1451 134.16a9.18 9.18 0 0 1 -1.88 -5c2.34 1 2.63 2.75 1.88 5z"/>
  <path id="svg_129" class="cls-7" d="m855 393.9a21.13 21.13 0 0 1 -7.4 -0.74c2.47 0.17 5.05-0.88 7.4 0.74z"/>
  <path id="svg_130" class="cls-7" d="m1368.2 125.04c-0.11-2.14-0.22-4.27 0.69-6.3a6.59 6.59 0 0 1 -0.69 6.3z"/>
  <path id="svg_131" class="cls-7" d="m671 439.9l-6.93-0.06a6.94 6.94 0 0 1 6.93 0.06z"/>
  <path id="svg_132" class="cls-7" d="m2865.9 440.16l-1.95-1.1c0.57-0.88 1.05-2.31 2.36-1.4 0.98 0.71-0.24 1.68-0.41 2.5z"/>
  <path id="svg_133" class="cls-7" d="m2528.9 439.41c-2-0.56-4.24 0.06-6.07-1.28 1.92 0.9 4.73-2.39 6.07 1.28z"/>
  <path id="svg_134" class="cls-7" d="m585.08 332.06a7.79 7.79 0 0 1 1.92 -5c0.5 2.1 0.1 3.87-1.92 5z"/>
  <path id="svg_135" class="cls-7" d="m158.19 333.05c-0.12-1.78-0.25-3.57 0.71-5.21 0.66 1.86 1.61 3.76-0.71 5.21z"/>
  <path id="svg_136" class="cls-7" d="m2711 678.16l-3.11-5c3 0.38 2.96 2.72 3.11 5z"/>
  <path id="svg_137" class="cls-7" d="m574.17 392.05c-0.07-2.06-0.33-4.14 0.81-6-0.76 1.91 1.96 4.33-0.81 6z"/>
  <path id="svg_138" class="cls-7" d="m1235.2 224.02c-0.17-2-0.25-4.06 0.74-6a8.42 8.42 0 0 1 -0.74 6z"/>
  <path id="svg_139" class="cls-7" d="m68.11 504.65c0.92 1.71 0.82 3.56 0.73 5.4-3.89-1.31 0.11-3.68-0.73-5.4z"/>
  <path id="svg_140" class="cls-7" d="m1347.8 76.16l0.06 6.92a7.08 7.08 0 0 1 -0.06 -6.92z"/>
  <path id="svg_141" class="cls-7" d="m2497.9 72.3a5.65 5.65 0 0 1 -3 -2.17c1.28 0.3 4.84-2.54 3 2.17z"/>
  <path id="svg_142" class="cls-7" d="m2478 448.16a2 2 0 0 1 2 0.86c-0.52 0.92-1 2.27-2.3 1.55-1.08-0.66 0.12-1.63 0.3-2.41z"/>
  <path id="svg_143" class="cls-7" d="m568 174.07a4.14 4.14 0 0 1 -1.8 4.07c-1.11-2.1 0.31-3.1 1.8-4.07z"/>
  <path id="svg_144" class="cls-7" d="m2903.1 68.1c-2.25 1.11-4.67 0.8-7 0.79 2.15-1.59 4.65-0.53 7-0.79z"/>
  <path id="svg_145" class="cls-7" d="m619.9 310.82c1.59-0.89 3.1-1.85 5.1-1.66-1.61 0.9-2.76 3.11-5.1 1.66z"/>
  <path id="svg_146" class="cls-7" d="m2119.8 486.04a1.7 1.7 0 0 1 -0.75 2.06c-0.9-0.44-2.09-1-1.68-2.08 0.6-1.41 1.6-0.21 2.43 0.02z"/>
  <path id="svg_147" class="cls-7" d="m1634.2 476.04v-6.94a6.87 6.87 0 0 1 0 6.94z"/>
  <path id="svg_148" class="cls-7" d="m1801.9 425.47l-2-3.33c4.92-1.48 1.46 2.14 2 3.33z"/>
  <path id="svg_149" class="cls-7" d="m385 32.08l-1.21-1.9c0.95 0 2-1.78 2.78-0.12 0.43 1-0.75 1.56-1.57 2.02z"/>
  <path id="svg_150" class="cls-7" d="m3157.2 318.04c0-2.38-0.28-4.78 0.78-7-0.23 2.31 0.83 4.8-0.78 7z"/>
  <path id="svg_151" class="cls-7" d="m2364 391.16a5 5 0 0 1 3.27 1.77c-0.43 0.59-1 1.74-1.26 1.67-1.58-0.51-1.74-2.03-2.01-3.44z"/>
  <path id="svg_152" class="cls-7" d="m2749.2 307.05c-0.07-2.09-0.32-4.2 0.77-6.14-0.71 1.99 2 4.41-0.77 6.14z"/>
  <path id="svg_153" class="cls-7" d="m647.52 300.93a9.63 9.63 0 0 1 4.48 -1.67c-0.35 3.6-2.77 1.69-4.48 1.67z"/>
  <path id="svg_154" class="cls-7" d="m2587.7 661.16c-1.09 0.44-2.14 0.91-3-0.15a1.28 1.28 0 0 1 0.33 -1.16c1.21-0.48 2.08 0.06 2.67 1.31z"/>
  <path id="svg_156" class="cls-7" d="m844.3 393.16c-2.36 0.89-4.82 0.74-7.27 0.74 2.28-1.61 4.84-0.58 7.27-0.74z"/>
  <path id="svg_157" class="cls-7" d="m2408.2 661.16a4.77 4.77 0 0 1 -3.2 1.73c-1.66-5.64 1.92-1.57 3.2-1.73z"/>
  <path id="svg_158" class="cls-7" d="m2887 489.29a13.78 13.78 0 0 1 6.26 0.68c-2.13 0.53-4.26 0.92-6.26-0.68z"/>
  <path id="svg_159" class="cls-7" d="m1316.1 410.74a16.77 16.77 0 0 1 0.74 7.3c-1.62-2.29-0.58-4.88-0.74-7.3z"/>
  <path id="svg_160" class="cls-7" d="m1010.2 202.16c-2 1-4.07 0.83-6.17 0.75 1.75-2.75 4.17-0.08 6.17-0.75z"/>
  <path id="svg_161" class="cls-7" d="m3062.8 38.09c0 1.73 0.23 3.49-0.82 5 0.53-1.59-1.8-3.7 0.82-5z"/>
  <path id="svg_162" class="cls-7" d="m2682.8 299.16c0.08 2 0.31 4.12-0.75 6 0.21-2-0.68-4.19 0.75-6z"/>
  <path id="svg_163" class="cls-7" d="m1404.9 45.23l-2.93-2.17c2-0.68 3.93-1.21 2.93 2.17z"/>
  <path id="svg_164" class="cls-7" d="m374 59.3a3.91 3.91 0 0 1 3.15 1.72c-1.57 0.31-3.78 1.85-3.15-1.72z"/>
  <path id="svg_165" class="cls-7" d="m1343.8 286.09a9.43 9.43 0 0 1 -1.76 5.17c-0.07-1.95-0.45-4 1.76-5.17z"/>
  <path id="svg_166" class="cls-7" d="m2643 754.28a3.5 3.5 0 0 1 2.29 1.67c-0.9 0.18-1.74 1.38-2.67 0.52-0.77-0.67 0.06-1.47 0.38-2.19z"/>
  <path id="svg_167" class="cls-7" d="m605 282.86a6.28 6.28 0 0 1 -4 -1.79c1.69-0.2 3.81-1.35 4 1.79z"/>
  <path id="svg_168" class="cls-7" d="m659.06 277.1c-1.55 1-3.29 0.93-5 0.81 1.51-1.14 3.13-1.75 5-0.81z"/>
  <path id="svg_169" class="cls-7" d="m1809.9 94.09c-0.23 2 0.19 4.15-0.87 6.06 0.24-1.99-0.77-4.23 0.87-6.06z"/>
  <path id="svg_170" class="cls-7" d="m820.1 102.11l-3.12 1.83c-1.33-4.64 2.09-1.2 3.12-1.83z"/>
  <path id="svg_171" class="cls-7" d="m407.22 110.03v-5.93a5.22 5.22 0 0 1 0 5.93z"/>
  <path id="svg_172" class="cls-7" d="m2825 110.16c-0.78 1.19-1.53 2.41-3.05 2.77 0.45-1.5 0.51-3.48 3.05-2.77z"/>
  <path id="svg_173" class="cls-7" d="m994.93 114.89l2.07-1.83c-0.31 0.93 1.18 2.11-0.25 2.82-0.75 0.39-1.42-0.27-1.82-0.99z"/>
  <path id="svg_174" class="cls-7" d="m1093.9 142.09c0.06 1.76 0.15 3.52-0.8 5.12-0.95-1.89-0.41-3.56 0.8-5.12z"/>
  <path id="svg_175" class="cls-7" d="m3071.9 169.47a14.92 14.92 0 0 1 -0.69 -6.37c1.49 1.99 0.59 4.24 0.69 6.37z"/>
  <path id="svg_176" class="cls-7" d="m1208.8 185.1c0 2.05 0.35 4.15-0.79 6 0.22-1.94-0.72-4.15 0.79-6z"/>
  <path id="svg_177" class="cls-7" d="m347.17 205.05c-0.13-1.81-0.26-3.61 0.74-5.26-0.48 1.72 1.89 3.84-0.74 5.26z"/>
  <path id="svg_178" class="cls-7" d="m1893.9 116.35c-1.1-2-0.78-4.14-0.74-6.26 1.53 1.94 0.61 4.16 0.74 6.26z"/>
  <path id="svg_179" class="cls-7" d="m979.93 218.04c1.9-1.13 4-0.84 6-0.77-1.82 1.48-3.99 0.56-6 0.77z"/>
  <path id="svg_180" class="cls-7" d="m1234.2 236.04c-0.08-2.1-0.25-4.21 0.74-6.18-0.14 2.07 0.77 4.3-0.74 6.18z"/>
  <path id="svg_181" class="cls-7" d="m1109.1 237.9a8.56 8.56 0 0 1 0 6.54v-6.54z"/>
  <path id="svg_182" class="cls-7" d="m1349.8 246.16c0.14 2.08 0.32 4.17-0.69 6.12 0.15-2.12-0.71-4.26 0.69-6.12z"/>
  <path id="svg_183" class="cls-7" d="m738 258.09c-1.17 1.11-2.61 1-4 0.88 1-2.1 2.42-1.86 4-0.88z"/>
  <path id="svg_184" class="cls-7" d="m522.05 416.92c1.07 1.94 0.88 4 0.82 6.13-1.6-1.89-0.62-4.08-0.82-6.13z"/>
  <path id="svg_185" class="cls-7" d="m2563 429.92c1 2.06 1.39 4.11-0.05 6.15q0-3.08 0.05-6.15z"/>
  <path id="svg_186" class="cls-7" d="m681.14 439.16c-1.6 1-3.36 0.85-5.11 0.73 1.58-1.12 3.24-1.73 5.11-0.73z"/>
  <path id="svg_187" class="cls-7" d="m1634 449.35a2.86 2.86 0 0 1 2.07 1.66 1.18 1.18 0 0 1 -2 0.46c-0.91-0.64-0.5-1.39-0.07-2.12z"/>
  <path id="svg_188" class="cls-7" d="m2946.3 456.16c-2 0.94-4.13 0.81-6.25 0.69 1.96-1.45 4.15-0.57 6.25-0.69z"/>
  <path id="svg_189" class="cls-7" d="m2526 462.16c2.06 0 4.15-0.3 6 0.85-2-0.2-4.15 0.79-6-0.85z"/>
  <path id="svg_190" class="cls-7" d="m2556.9 463.04c1.55-1 3.29-0.94 5-0.83-1.49 1.17-3.13 1.73-5 0.83z"/>
  <path id="svg_191" class="cls-7" d="m2002 480.16c-1-1.93-0.89-4-0.8-6.11 1.51 1.92 0.56 4.11 0.8 6.11z"/>
  <path id="svg_192" class="cls-7" d="m316.17 493.04c-0.12-2.11-0.25-4.21 0.76-6.18-0.16 2.07 0.77 4.3-0.76 6.18z"/>
  <path id="svg_193" class="cls-7" d="m2957.7 488.98a9.37 9.37 0 0 1 5.26 -0.72c-1.43 2.6-3.54 0.24-5.26 0.72z"/>
  <path id="svg_194" class="cls-7" d="m2945.7 489.97a13.29 13.29 0 0 1 6.27 -0.65c-1.95 1.4-4.17 0.55-6.27 0.65z"/>
  <path id="svg_195" class="cls-7" d="m154.21 373.04c-0.15-1.76-0.25-3.52 0.73-5.13 0.33 1.79 1.13 3.65-0.73 5.13z"/>
  <path id="svg_196" class="cls-7" d="m1961.9 370.11c-1.07-1.19-0.86-2.62-0.77-4 1.88 1.05 1.88 2.41 0.77 4z"/>
  <path id="svg_197" class="cls-7" d="m2695.4 657.49c-0.51 1.54-1.87 2-2.52 1.2-1.32-1.65 0.79-0.77 1.23-1.17 0.22-0.19 0.77-0.03 1.29-0.03z"/>
  <path id="svg_198" class="cls-7" d="m1933 349.05a7.77 7.77 0 0 1 1.91 5c-2.24-1.04-1.91-3.09-1.91-5z"/>
  <path id="svg_199" class="cls-7" d="m1740.8 344.09c0.11 1.8 0.26 3.61-0.74 5.25 0.48-1.72-1.89-3.84 0.74-5.25z"/>
  <path id="svg_200" class="cls-7" d="m157.19 343.04a9.52 9.52 0 0 1 0.68 -5.28c1.01 1.92 0.5 3.64-0.68 5.28z"/>
  <path id="svg_201" class="cls-7" d="m2641.6 666.06a6.11 6.11 0 0 1 -3.65 2.9c0.16-2.3 1.61-2.97 3.65-2.9z"/>
  <path id="svg_202" class="cls-7" d="m2636.9 670.07a6.25 6.25 0 0 1 -2.9 3.66c-0.07-2.04 0.59-3.5 2.9-3.66z"/>
  <path id="svg_203" class="cls-7" d="m1118.2 327.71a10.57 10.57 0 0 1 0.66 5.33c-1.21-1.65-1.67-3.4-0.66-5.33z"/>
  <path id="svg_204" class="cls-7" d="m2225.2 393.04c0-2-0.25-4.13 0.8-6-0.22 1.98 0.73 4.12-0.8 6z"/>
  <path id="svg_205" class="cls-7" d="m1156.9 318.27c-1-2-0.82-4.07-0.75-6.17 1.51 1.9 0.59 4.06 0.75 6.17z"/>
  <path id="svg_206" class="cls-7" d="m2965.4 454.16c-2 1.11-4.22 0.88-6.39 0.75 1.97-1.57 4.24-0.6 6.39-0.75z"/>
  <path id="svg_207" class="cls-7" d="m1366.4 43.23l-2.42 1.56c-0.08-0.59-0.44-1.41-0.18-1.74 0.84-1.06 1.73-0.03 2.6 0.18z"/>
  <path id="svg_208" class="cls-7" d="m2444.3 59.16a8.78 8.78 0 0 1 -5.25 0.74c1.58-1.43 3.48-0.66 5.25-0.74z"/>
  <path id="svg_209" class="cls-7" d="m2893.1 69.1c-1.2 1-2.62 0.9-4 0.79 1.11-1.26 2.42-1.73 4-0.79z"/>
  <path id="svg_210" class="cls-7" d="m2933 69.91c-1.78 0.14-3.56 0.22-5.18-0.77 1.73 0.11 3.61-0.67 5.18 0.77z"/>
  <path id="svg_211" class="cls-7" d="m971 71.84c-1.41 0-2.85 0.22-4.08-0.74 1.28 0.73 3.14-1.79 4.08 0.74z"/>
  <path id="svg_212" class="cls-7" d="m2390.2 76.16a5.58 5.58 0 0 1 -3.18 1.72c0.19-2.18 1.24-2.78 3.18-1.72z"/>
  <path id="svg_213" class="cls-7" d="m922 95.07c1.13-1.2 2.58-1 4-0.88-0.9 2.29-2.61 0.87-4 0.88z"/>
  <path id="svg_214" class="cls-7" d="m2750 439.37l3.3 2.58c-1.9 0.21-3.05-0.64-3.3-2.58z"/>
  <path id="svg_215" class="cls-7" d="m688.19 438.16c-1.6 1.06-3.39 0.92-5.17 0.8 1.54-1.5 3.43-0.71 5.17-0.8z"/>
  <path id="svg_216" class="cls-7" d="m2982.2 452.16c-1.6 1-3.37 0.9-5.15 0.77 1.55-1.45 3.42-0.68 5.15-0.77z"/>
  <path id="svg_217" class="cls-7" d="m2133.8 437.1a8.58 8.58 0 0 1 -0.75 5.15c0.11-1.73-0.64-3.6 0.75-5.15z"/>
  <path id="svg_218" class="cls-7" d="m274.83 517.1q0 2.47 0 4.95a3.74 3.74 0 0 1 0 -4.95z"/>
  <path id="svg_219" class="cls-7" d="m702.27 436.16a8.23 8.23 0 0 1 -5.24 0.76c1.57-1.46 3.47-0.67 5.24-0.76z"/>
  <path id="svg_220" class="cls-7" d="m77 527.23c1.33-0.11 2.21 0.72 3.11 1.51-2.11 1.82-2.11-0.95-3.11-1.51z"/>
  <path id="svg_221" class="cls-7" d="m1689.9 433.03a5.67 5.67 0 0 1 3.09 -1.87c-0.16 2.1-1.06 2.95-3.09 1.87z"/>
  <path id="svg_222" class="cls-7" d="m2234.1 371.05a7 7 0 0 1 1.88 -4c0.1 1.7-0.16 3.19-1.88 4z"/>
  <path id="svg_223" class="cls-7" d="m1150 471.33a4 4 0 0 1 2.82 2.74 2.74 2.74 0 0 1 -2.82 -2.74z"/>
  <path id="svg_224" class="cls-7" d="m2372 365.79l-2.41-1.56c0.87-0.2 1.76-1.24 2.59-0.18 0.26 0.33-0.1 1.11-0.18 1.74z"/>
  <path id="svg_225" class="cls-7" d="m1367.9 435.02l2.13-3.86c0.07 1.68-0.17 3.25-2.13 3.86z"/>
  <path id="svg_226" class="cls-7" d="m1738.9 358.09c0.12 1.41 0.32 2.83-0.7 4-1.17-1.55-0.17-2.76 0.7-4z"/>
  <path id="svg_227" class="cls-7" d="m1788.9 475.03l2.08-2c0.21 0.72 0.94 1.45 0.13 2.19s-1.49 0.01-2.21-0.19z"/>
  <path id="svg_228" class="cls-7" d="m2135.8 421.07a5.75 5.75 0 0 1 -0.73 4.15c0.7-1.3-1.83-3.18 0.73-4.15z"/>
  <path id="svg_229" class="cls-7" d="m2520 658.07c0.77 0.17 2.08 0.15 2.22 0.54a2.19 2.19 0 0 1 -1.22 2.46l-1-3z"/>
  <path id="svg_230" class="cls-7" d="m1530 409.36c1.31 1 0.91 2.38 0.86 3.69-2.12-0.81-1.01-2.36-0.86-3.69z"/>
  <path id="svg_231" class="cls-7" d="m3127.3 410.08l2.54-3.48c0.23 1.94-0.51 3.18-2.54 3.48z"/>
  <path id="svg_232" class="cls-7" d="m1950.1 405.62l1.74 4.43c-1.87-0.95-1.98-2.63-1.74-4.43z"/>
  <path id="svg_233" class="cls-7" d="m877.94 409.16l-2.29-2c0.86-0.18 1.7-1.2 2.57-0.2 0.65 0.8-0.09 1.53-0.28 2.2z"/>
  <path id="svg_234" class="cls-7" d="m155.22 363.03a9.35 9.35 0 0 1 0.69 -5.24c-0.07 1.77 0.67 3.64-0.69 5.24z"/>
  <path id="svg_235" class="cls-7" d="m2555.8 399.16l0.1 4.93a3.82 3.82 0 0 1 -0.1 -4.93z"/>
  <path id="svg_236" class="cls-7" d="m2363 360.16a5.07 5.07 0 0 1 -3 -2c2.21-1.17 2.12 1.12 3 2z"/>
  <path id="svg_237" class="cls-7" d="m1949.1 398.8a10.14 10.14 0 0 1 0.74 5.24c-1.43-1.58-0.66-3.47-0.74-5.24z"/>
  <path id="svg_238" class="cls-7" d="m522.06 350.9a5.89 5.89 0 0 1 0 5.47q0.02-2.73 0-5.47z"/>
  <path id="svg_239" class="cls-7" d="m3121.9 350.09c0.09 1.42 0.18 2.83-0.9 4-0.86-1.61 0-2.82 0.9-4z"/>
  <path id="svg_240" class="cls-7" d="m806 458.06c1.16-1.13 2.6-1 4-0.86-0.92 2.29-2.64 0.85-4 0.86z"/>
  <path id="svg_241" class="cls-7" d="m156.2 353.04a9.41 9.41 0 0 1 0.69 -5.36c-0.06 1.8 0.7 3.72-0.69 5.36z"/>
  <path id="svg_242" class="cls-7" d="m822.11 399.16l-2.17 1.65c-0.33-0.68-0.91-1.53 0.06-1.95 0.56-0.28 1.4 0.14 2.11 0.3z"/>
  <path id="svg_243" class="cls-7" d="m575.16 383.04c-0.14-1.78-0.3-3.55 0.77-5.15-0.11 1.74 0.66 3.61-0.77 5.15z"/>
  <path id="svg_244" class="cls-7" d="m597.88 277.43a5 5 0 0 1 0 -5.81q0 2.9 0 5.81z"/>
  <path id="svg_245" class="cls-7" d="m1310.9 261.11c-1-0.82-0.89-1.92-0.81-3 1.05 0.77 2.75 1.4 0.81 3z"/>
  <path id="svg_246" class="cls-7" d="m1348.8 257.1c0.1 1.79 0.25 3.58-0.73 5.22 0.08-1.76-0.68-3.64 0.73-5.22z"/>
  <path id="svg_247" class="cls-7" d="m1968 478.99c1 1.57 0.78 3.32 0.75 5-1.31-1.48-0.57-3.31-0.75-5z"/>
  <path id="svg_248" class="cls-7" d="m1775 482.04c0.78-1.05 1.86-1.05 3-0.85-0.81 0.97-1.42 2.67-3 0.85z"/>
  <path id="svg_249" class="cls-7" d="m1232.2 255.04c-0.07-1.74-0.25-3.49 0.79-5.05-0.15 1.7 0.61 3.54-0.79 5.05z"/>
  <path id="svg_250" class="cls-7" d="m1141.1 451.82a5.9 5.9 0 0 1 0.75 4.23c-2.35-1.04-0.72-2.78-0.75-4.23z"/>
  <path id="svg_251" class="cls-7" d="m1581 484.42l3 1.67c-1.9 1-2.76 0.21-3-1.67z"/>
  <path id="svg_252" class="cls-7" d="m2984 247.27l5-0.11a3.72 3.72 0 0 1 -5 0.11z"/>
  <path id="svg_253" class="cls-7" d="m1233.2 246.04a9.14 9.14 0 0 1 0.71 -5.24c-0.07 1.76 0.67 3.64-0.71 5.24z"/>
  <path id="svg_254" class="cls-7" d="m665.81 486c1.6-1.08 3.38-0.89 5.16-0.78-1.54 1.45-3.41 0.67-5.16 0.78z"/>
  <path id="svg_255" class="cls-7" d="m2989.4 451.16a6.53 6.53 0 0 1 -4.4 0.72c1.11-2.4 2.91-0.58 4.4-0.72z"/>
  <path id="svg_256" class="cls-7" d="m556.95 226.34c1.69 1.29 1 2.67 0.17 4.07 0.03-1.36-1.2-2.67-0.17-4.07z"/>
  <path id="svg_257" class="cls-7" d="m657.83 487.01c1.6-1 3.37-0.9 5.14-0.77-1.54 1.42-3.4 0.65-5.14 0.77z"/>
  <path id="svg_258" class="cls-7" d="m1204.9 213.09c0.12 1.42 0.16 2.81-0.87 4-0.87-1.6 0-2.81 0.87-4z"/>
  <path id="svg_259" class="cls-7" d="m2955 213.94a7.49 7.49 0 0 1 -4 -1.85c1.63-0.13 3.15 0.07 4 1.85z"/>
  <path id="svg_260" class="cls-7" d="m2877 211.16a4.94 4.94 0 0 1 3.64 1.91c-1.58 0.09-2.91-0.31-3.64-1.91z"/>
  <path id="svg_261" class="cls-7" d="m1916 215.16a6 6 0 0 1 -0.8 -4.08c2.61 0.88 0.02 2.81 0.8 4.08z"/>
  <path id="svg_262" class="cls-7" d="m2632.8 675.07a3.28 3.28 0 0 1 -1.88 2.82c-1.12-2.11 0.17-2.61 1.88-2.82z"/>
  <path id="svg_263" class="cls-7" d="m2866.1 676.25a3.5 3.5 0 0 1 -3.06 0.65c0.85-1.03 1.56-2.74 3.06-0.65z"/>
  <path id="svg_264" class="cls-7" d="m2682.1 325.65a10.24 10.24 0 0 1 0.67 5.38c-1.37-1.65-0.61-3.56-0.67-5.38z"/>
  <path id="svg_265" class="cls-7" d="m556.78 210.11c0.13 1.73 0.33 3.48-0.75 5 0.15-1.66-0.59-3.49 0.75-5z"/>
  <path id="svg_266" class="cls-7" d="m2871 208.26l3.13 1.47c-1.86 1.24-2.72 0.36-3.13-1.47z"/>
  <path id="svg_267" class="cls-7" d="m979.06 206.09c-1.54 1.13-3.29 0.95-5 0.85 1.44-1.48 3.3-0.67 5-0.85z"/>
  <path id="svg_268" class="cls-7" d="m153.2 382.04c-0.1-1.74-0.26-3.48 0.77-5.05-0.15 1.69 0.6 3.53-0.77 5.05z"/>
  <path id="svg_269" class="cls-7" d="m1498 322.39c1.41 0.95 0.87 2.39 0.93 3.67-2.17-0.75-1.11-2.33-0.93-3.67z"/>
  <path id="svg_270" class="cls-7" d="m992.29 204.16a8.45 8.45 0 0 1 -5.26 0.77c1.57-1.47 3.48-0.68 5.26-0.77z"/>
  <path id="svg_271" class="cls-7" d="m1000.2 203.16c-1.6 1-3.37 0.89-5.14 0.78 1.53-1.46 3.4-0.69 5.14-0.78z"/>
  <path id="svg_272" class="cls-7" d="m1117.1 315.76a9.1 9.1 0 0 1 0.68 5.27c-1.36-1.61-0.62-3.49-0.68-5.27z"/>
  <path id="svg_273" class="cls-7" d="m3007 194.26c1.17 0 1.71 0.86 2.23 1.72-0.73 0.19-1.4 0.95-2.22 0.38s-0.33-1.4-0.01-2.1z"/>
  <path id="svg_274" class="cls-7" d="m2749.9 320.25c-1.07-1.6-0.82-3.38-0.72-5.14 1.35 1.56 0.61 3.41 0.72 5.14z"/>
  <path id="svg_275" class="cls-7" d="m648.84 488.01c1.6-1 3.36-0.87 5.13-0.74-1.55 1.38-3.4 0.63-5.13 0.74z"/>
  <path id="svg_276" class="cls-7" d="m2907 184.89a3.45 3.45 0 0 1 -2.22 -1.73c0.73-0.19 1.4-0.94 2.21-0.37s0.32 1.37 0.01 2.1z"/>
  <path id="svg_277" class="cls-7" d="m2573.8 706.53l-1.64-2.49c0.68-0.26 1.39-0.87 2-0.05s-0.18 1.69-0.36 2.54z"/>
  <path id="svg_278" class="cls-7" d="m1777.8 182.1c0.13 1.77 0.22 3.53-0.74 5.14 0.11-1.73-0.64-3.59 0.74-5.14z"/>
  <path id="svg_279" class="cls-7" d="m2475.8 181.01a5.29 5.29 0 0 1 2.13 -3c0.02 1.52 0.02 3.03-2.13 3z"/>
  <path id="svg_280" class="cls-7" d="m2966.7 487.97a8.48 8.48 0 0 1 5.27 -0.74c-1.59 1.44-3.49 0.67-5.27 0.74z"/>
  <path id="svg_281" class="cls-7" d="m1183.8 307.1a7.32 7.32 0 0 1 -0.7 4.19 3 3 0 0 1 0.7 -4.19z"/>
  <path id="svg_282" class="cls-7" d="m3071.2 180.02a10.83 10.83 0 0 1 0.66 -5.25c-0.07 1.78 0.66 3.64-0.66 5.25z"/>
  <path id="svg_283" class="cls-7" d="m2970 163.25c1.29 0.1 2.43 0.45 2.91 1.84-2.05 1.07-2.72-0.01-2.91-1.84z"/>
  <path id="svg_284" class="cls-7" d="m670.26 151.16c-1.28 1-2.76 0.86-4.24 0.73 1.06-2.33 2.79-0.73 4.24-0.73z"/>
  <path id="svg_285" class="cls-7" d="m2623.2 719.99a4.13 4.13 0 0 1 0.68 3.06c-1.08-0.83-2.75-1.53-0.68-3.06z"/>
  <path id="svg_286" class="cls-7" d="m853.91 449.04c1.2-1.06 2.63-1 4.08-0.83-0.99 2.3-2.67 0.81-4.08 0.83z"/>
  <path id="svg_287" class="cls-7" d="m1203.1 137.8a4.54 4.54 0 0 1 1.7 3.28c-2.3-0.2-2.74-1.35-1.7-3.28z"/>
  <path id="svg_288" class="cls-7" d="m1945.3 298.16c-1.76 1-3.51 1.28-5.22-0.12l5.22 0.12z"/>
  <path id="svg_289" class="cls-7" d="m2877 488.27c1.74-0.08 3.49-0.27 5.06 0.77-1.67-0.15-3.51 0.6-5.06-0.77z"/>
  <path id="svg_290" class="cls-7" d="m533.86 292.09c0.08 1.77 0.3 3.55-0.81 5.13 0.14-1.73-0.66-3.61 0.81-5.13z"/>
  <path id="svg_291" class="cls-7" d="m610 138.87a10.84 10.84 0 0 1 -5.27 -0.7c1.74 0.06 3.63-0.69 5.27 0.7z"/>
  <path id="svg_292" class="cls-7" d="m602.16 138.16c-1.61 0.93-3.38 0.78-5.13 0.75 1.55-1.42 3.4-0.67 5.13-0.75z"/>
  <path id="svg_294" class="cls-7" d="m846.83 115.99a3.66 3.66 0 0 1 3.17 -0.83c-0.39 2.75-1.92 1.25-3.17 0.83z"/>
  <path id="svg_295" class="cls-7" d="m2974.2 453.16c-1.6 1-3.38 0.86-5.15 0.77 1.54-1.45 3.41-0.68 5.15-0.77z"/>
  <path id="svg_296" class="cls-7" d="m2636 748.26a1.94 1.94 0 0 1 1.81 1.85c-0.69 0.19-1.42 1.22-2 0.38-0.35-0.47 0.09-1.47 0.19-2.23z"/>
  <path id="svg_297" class="cls-7" d="m2464 751.08l1.93-2.13 0.22 2.7-2.15-0.57z"/>
  <path id="svg_298" class="cls-7" d="m343.89 291.48c-1.06-1.68-0.83-3.54-0.72-5.38 1.44 1.63 0.65 3.56 0.72 5.38z"/>
  <path id="svg_299" class="cls-7" d="m576.16 375.05a6 6 0 0 1 0.74 -4.25c-0.03 1.46 1.61 3.2-0.74 4.25z"/>
  <path id="svg_300" class="cls-7" d="m623.18 283.16c-1.61 1-3.37 0.84-5.13 0.7 1.56-1.35 3.4-0.63 5.13-0.7z"/>
  <path id="svg_301" class="cls-7" d="m626 443.9c-1.78 0.07-3.59 0.31-5.21-0.75 1.73 0.09 3.62-0.68 5.21 0.75z"/>
  <path id="svg_302" class="cls-7" d="m1537 379.08c-1.16-0.65-1-1.92-1.4-2.92 1.4 0.55 3.23 0.87 1.4 2.92z"/>
  <path id="svg_303" class="cls-7" d="m343.2 281.04c-0.11-1.8-0.31-3.61 0.71-5.27-0.08 1.78 0.68 3.67-0.71 5.27z"/>
  <path id="svg_304" class="cls-7" d="m1515 370.29c1.45 0.38 1.4 1.72 1.78 2.78-1.7-0.24-2.94-0.75-1.78-2.78z"/>
  <path id="svg_305" class="cls-7" d="m360.9 108.1c-1-1.19-0.81-2.61-0.73-4 0.83 1.23 1.83 2.43 0.73 4z"/>
  <path id="svg_306" class="cls-7" d="m2832 102.08a4.18 4.18 0 0 1 -2 3.9c-0.1-1.68 0.21-3.15 2-3.9z"/>
  <path id="svg_307" class="cls-7" d="m1203.8 101.09c0.2 1.63-0.77 2.67-1.86 3.64a3.37 3.37 0 0 1 1.86 -3.64z"/>
  <path id="svg_308" class="cls-7" d="m971 99.3c1 0.19 1.78 0.64 1.88 1.79-0.73 0.29-1.56 1-2.13 0-0.27-0.42 0.11-1.18 0.25-1.79z"/>
  <path id="svg_309" class="cls-7" d="m842 97.16c-1.19 1-2.6 0.9-4 0.78 1.24-0.89 2.44-1.78 4-0.78z"/>
  <path id="svg_310" class="cls-3" d="m2863.7 100.31c8.44 2.63 16 0.08 23.59-3.41s15.27-2.84 22.49 1.33c5.36 3.09 5.51 6.68 0.62 10.44a35.55 35.55 0 0 1 -21.42 7.08c-11.11 0.16-21.23 3.17-31.14 7.68a56.76 56.76 0 0 1 -13.27 4.17c-5.83 1.07-8.4-1.57-7.81-7.41 0.58-5.65 3.11-9.71 8.34-12 5-2.18 9.36-5.7 14.71-7.17 1.26-0.33 2.59-0.47 3.89-0.71z"/>
  <path id="svg_311" class="cls-7" d="m2468.9 688.51c-0.65 1.92-2.31 1.48-3.73 1.56-3.77 0.21-7.54-0.23-11.33 0.36-2.7 0.42-3.77-0.79-3.94-3.35 0.43 0.86 0.65 2.08 1.85 2 5.72-0.13 11.48 0.96 17.15-0.57z"/>
  <path id="svg_312" class="cls-7" d="m2403.1 755.88c-3.74 0.79-4.81 0-5.1-3.72 2.19 0.58 3.52 2.32 5.1 3.72z"/>
  <path id="svg_314" class="cls-7" d="m2449 660.07c0.64-0.16 1.28-0.32 1.92-0.49 0.89-0.24 1.84-1.43 2.65-0.54 1 1.06-0.36 2.1-0.66 3.16l-3.91-2.13z"/>
  <path id="svg_315" class="cls-7" d="m2407 710.07c-3 1.33-3.58-1.49-5-2.91a7.93 7.93 0 0 1 5 2.91z"/>
  <path id="svg_316" class="cls-7" d="m2468.1 683.07c3.13 1.42 0.47 3.64 0.75 5.46-1.09-1.71-0.75-3.61-0.75-5.46z"/>
  <path id="svg_318" class="cls-3" d="m3123 672.9c10.44 0.06 17.67 8.19 17.78 20 0.11 12.12-7.6 20.88-18.2 20.7-10.38-0.17-16.89-8.38-16.78-21.17 0.13-12.11 6.73-19.59 17.2-19.53z"/>
  <path id="svg_319" class="cls-7" d="m3130 659.16c1.74 0 4-2.09 4.92 1.2-1.68-0.38-3.49-0.09-4.92-1.2z"/>
  <path id="svg_320" class="cls-7" d="m3113 660.05c0.71-3.23 2.6-1 4-0.88a5.82 5.82 0 0 1 -4 0.88z"/>
  <path id="svg_321" class="cls-7" d="m3094.4 673.24c-1.65-2.75 0.95-2.5 2.24-3.18l-2.24 3.18z"/>
  <path id="svg_324" class="cls-7" d="m2932.1 700.87l2 7.1c-3 1.09-4.16 0.27-3.11-3 0.47-1.3 0.76-2.71 1.11-4.1z"/>
  <path id="svg_325" class="cls-7" d="m3023.2 665.16l-5 5.37c-0.71-4.73 0.27-5.78 5-5.37z"/>
  <path id="svg_326" class="cls-7" d="m2931.8 689.09q0 3.49-0.08 7c-1-2.36-1.92-4.7 0.08-7z"/>
  <path id="svg_327" class="cls-7" d="m2985.9 664.38l-6-3.27c3.26-1.16 4.93 0.5 6 3.27z"/>
  <path id="svg_328" class="cls-7" d="m2934.1 707.99l1.6 3.13c-3.72 0.6-2.52-1.35-1.6-3.13z"/>
  <path id="svg_329" class="cls-7" d="m2993.9 673.23l-2.13-3.07c4.72-1.76 1.83 1.76 2.13 3.07z"/>
  <path id="svg_330" class="cls-7" d="m2941.8 667.07a4.72 4.72 0 0 1 -2.82 2.95c-1.14-2.97 1.49-2.34 2.82-2.95z"/>
  <path id="svg_331" class="cls-7" d="m3067.8 658.29c1.42 0.28 2.05 0.94 1.92 2.07a1.11 1.11 0 0 1 -1.33 1.07 2 2 0 0 1 -1.68 -2c0.04-0.47 0.79-0.85 1.09-1.14z"/>
  <path id="svg_332" class="cls-7" d="m3073.9 673.39l-2.92-4.3c4.83-1.19 3.15 2.07 2.92 4.3z"/>
  <path id="svg_333" class="cls-7" d="m3065.9 664.31l-3.37-2.08c1.21 0.56 4.95-3 3.37 2.08z"/>
  <path id="svg_335" class="cls-7" d="m2525 663.08l-0.95 1c-0.82-0.46-2-0.85-1.2-2.08 0.59-0.93 1.43-0.15 2.15 0.07q0 0.5 0 1.01z"/>
  <path id="svg_336" class="cls-3" d="m3071 47.24c0-22.38 17.16-40.09 39-40.17s38.94 17.76 38.91 40.17c0 22.64-17 40.41-38.68 40.46-22.06 0.05-39.23-17.65-39.23-40.46z"/>
  <path id="svg_340" class="cls-7" d="m2942 719.39a7 7 0 0 1 3.28 2.57 2.69 2.69 0 0 1 -3.28 -2.57z"/>
  <path id="svg_341" class="cls-3" d="m2451.9 90.94c12.75 0.06 23.81 3.79 32 14.29 6 7.67 6.9 15.89 3.47 24.8-4.66 12.09-13.06 21.55-21.82 30.69-35.03 36.44-77.31 61.44-124.65 78.25-14.37 5.12-28.79 10.06-43.64 13.6-8 1.91-9 1.12-7.41-6.88 3.82-19.53 12.76-36.9 22.11-54.14 26-47.93 65.92-79.06 116.94-96.72a68.59 68.59 0 0 1 23 -3.89z"/>
  <path id="svg_342" class="cls-3" d="m1776.1 347.9c0.89-10.11 4.8-20.82 6.72-31.89 5-28.81 14.12-56.59 20.81-85 6.51-27.6 18.23-53.64 27.7-80.35 4.66-13.13 8.93-26.39 13.54-39.53 1.33-3.81 1.93-9 6.52-9.83 4.79-0.83 7.26 4 10.14 7.09 9.89 10.65 12.89 24.5 17.21 37.7a59.76 59.76 0 0 1 3.32 17c0.2 6.91 4.47 12.92 5.6 19.51 3.67 21.37 10.57 41.76 17.44 62.18 5.46 16.19 13.36 31.43 16.87 48.38 1.13 5.48 4.24 10.68 6.2 16.13 1.6 4.42 0 6.16-3.54 7.59-11.86 4.73-24.09 8.4-36.27 12.16-14.26 4.41-28.64 8.43-42.82 13.08-4.9 1.61-9.36 3.12-14.75 2.05s-10.93 0.72-15.76 3.54a77.51 77.51 0 0 1 -29 9.92c-8.01 1.03-10.01-0.47-9.93-9.73z"/>
  <path id="svg_344" class="cls-3" d="m3029.8 686.93c0.06-9 6.42-15 15.71-14.86 8.84 0.15 15.26 6.5 15.23 15.06s-6.49 14.43-15.68 14.42-15.32-5.78-15.26-14.62z"/>
  <path id="svg_345" class="cls-3" d="m2983.2 692.94c0 13.48-8.68 22.06-20.6 20.34-7.72-1.12-12.88-7.27-14.22-17-1.91-13.75 6.07-24 18.28-23.4 9.82 0.49 16.53 8.62 16.54 20.06z"/>
  <path id="svg_346" class="cls-4" d="m3133.4 74.49c-6.83 1.93-10.73-0.25-13.5-5.88-2.41-4.89-6.09-9.14-8.55-14s-6.32-3.36-9.91-3.21c-1.89 0.08-1.29 2-1.31 3.24-0.06 5.66-0.26 11.34 0.06 17 0.21 3.66-1.76 3.55-4.27 3.49s-4.45 0.38-4.4-3.39c0.2-16.16 0.12-32.32 0.05-48.48 0-2.43 0.52-3.66 3.29-3.58 7.82 0.23 15.67 0 23.47 0.42 8.27 0.48 13 5 13.79 12.39 1.05 9.75-2 15.05-10.71 17.48-3.3 0.92-2.63 2-1.32 4 4.43 6.68 8.77 13.49 13.31 20.52z"/>
  <path id="svg_347" class="cls-19" d="m3109.2 27.08c2.15 0 4.32-0.17 6.45 0 5 0.48 7.79 3.36 7.94 7.85s-2.29 8-7.12 8.64-9.57 0.33-14.36 0.45c-1.48 0-2-0.73-2-2.14v-6c-0.02-8.94-0.01-8.94 9.09-8.8z"/>
 </g>
</svg>
